<svg id="e2740bb1-4cee-4486-881b-af292fe4e0c1" data-name="Layer 1" xmlns="http://www.w3.org/2000/svg" xmlns:xlink="http://www.w3.org/1999/xlink" width="865.76" height="682.89" viewBox="0 0 865.76 682.89"><defs><clipPath id="f7d16e46-e396-44d0-bb61-8bf9f60d4f25"><path id="a0a7bbbe-ced6-4ed8-84b2-ea14a15a3df1" data-name="SVGID" d="M394.28,124.15s166.09-78.08,273.6-13c0,0,76.61,39.13,96.86,144.22,0,0,13.4,39.91-7.15,124.9,0,0-22.43,91.84-167.72,124,0,0-83.09,19.46-165.22,8,0,0-49.3-8.83-84.58-1.77,0,0-99.73,38-177.49-48.32,0,0-73.87-80-65.13-161.88,0,0,4.39-77.26,67.75-121.55q3.06-2.14,6-4.43c14.57-11.26,85-60.43,186.33-44.9C357.54,129.46,373.28,132.86,394.28,124.15Z" fill="none"/></clipPath></defs><ellipse cx="319.56" cy="638.2" rx="74.74" ry="17.84" fill="#0071f2"/><ellipse cx="319.56" cy="638.2" rx="74.74" ry="17.84" fill="#fff" opacity="0.7"/><ellipse cx="556.58" cy="627.19" rx="74.74" ry="17.84" fill="#0071f2"/><ellipse cx="556.58" cy="627.19" rx="74.74" ry="17.84" fill="#fff" opacity="0.7"/><path d="M394.28,124.15s166.09-78.08,273.6-13c0,0,76.61,39.13,96.86,144.22,0,0,13.4,39.91-7.15,124.9,0,0-22.43,91.84-167.72,124,0,0-83.09,19.46-165.22,8,0,0-49.3-8.83-84.58-1.77,0,0-99.73,38-177.49-48.32,0,0-73.87-80-65.13-161.88,0,0,4.39-77.26,67.75-121.55q3.06-2.14,6-4.43c14.57-11.26,85-60.43,186.33-44.9C357.54,129.46,373.28,132.86,394.28,124.15Z" fill="#0071f2"/><path d="M394.28,124.15s166.09-78.08,273.6-13c0,0,76.61,39.13,96.86,144.22,0,0,13.4,39.91-7.15,124.9,0,0-22.43,91.84-167.72,124,0,0-83.09,19.46-165.22,8,0,0-49.3-8.83-84.58-1.77,0,0-99.73,38-177.49-48.32,0,0-73.87-80-65.13-161.88,0,0,4.39-77.26,67.75-121.55q3.06-2.14,6-4.43c14.57-11.26,85-60.43,186.33-44.9C357.54,129.46,373.28,132.86,394.28,124.15Z" fill="#fff" opacity="0.7"/><g clip-path="url(#f7d16e46-e396-44d0-bb61-8bf9f60d4f25)"><polygon points="557.06 333.37 538.55 341.95 585.4 369.18 557.06 333.37" fill="#d1d3d4"/><rect x="621.26" y="85.25" width="13.98" height="421.82" fill="#fff"/><rect x="111.12" y="414.95" width="556.76" height="14.18" fill="#fff"/><rect x="418.03" y="102.75" width="15.76" height="444.6" fill="#fff"/><polygon points="407 384.26 425.17 516.1 687.8 526.56 757.73 403.99 764.74 384.89 407 384.26" fill="#a7a9ac"/><rect x="398.19" y="380.26" width="366.55" height="7.99" fill="#bcbec0"/><polygon points="640.06 384.26 569.52 521.85 633.94 509.54 698.37 386.25 640.06 384.26" fill="#f1f2f2" opacity="0.18"/><rect x="96.73" y="238.65" width="678.54" height="14.26" fill="#fff"/><rect x="635.24" y="376.59" width="10.01" height="3.67" fill="#2f2e41"/><rect x="597.9" y="262.38" width="136.45" height="92.34" fill="#2f2e41"/><circle cx="667.88" cy="299.08" r="5.59" opacity="0.2"/><path d="M652.84,315.84h-4.5s26.73,35.44,0,60.75h4.37l26.73-6.31V333.37Z" fill="#2f2e41"/><path d="M652.84,315.84h-4.5s26.73,35.44,0,60.75h4.37l26.73-6.31V333.37Z" opacity="0.2"/><rect x="645.25" y="376.59" width="56.02" height="3.67" fill="#2f2e41"/><rect x="645.25" y="376.59" width="56.02" height="3.67" opacity="0.2"/><rect x="213.47" y="127.94" width="18.4" height="390.94" fill="#fff"/><polygon points="138.28 414.95 197.03 252.91 210.21 252.91 151.4 414.95 138.28 414.95" fill="#fff" opacity="0.36"/><path d="M213.47,501.72H267l-2.33,15.71A168.18,168.18,0,0,1,213.47,501.72Z" fill="#fff"/><path d="M248.4,453.08S250.35,445,264.52,442c0,0,9.21-4.09,13.89-12.9L289,470.41s4.24,15.43-19.16,22.31c0,0-15.41,4.51-21.47,9H226.1L244,465.43Z" fill="#0071f2"/><path d="M248.4,453.08S250.35,445,264.52,442c0,0,9.21-4.09,13.89-12.9L289,470.41s4.24,15.43-19.16,22.31c0,0-15.41,4.51-21.47,9H226.1L244,465.43Z" opacity="0.2"/><path d="M245.26,488.4a61.56,61.56,0,0,0,7.79-3.79,46.83,46.83,0,0,0,7-5,29,29,0,0,0,5.59-6.38,20.24,20.24,0,0,0,2.9-7.89v.1a19.88,19.88,0,0,1,.25-3.87,22.69,22.69,0,0,1,.91-3.72,16.84,16.84,0,0,1,1.61-3.47,15.45,15.45,0,0,1,2.34-3,18.25,18.25,0,0,0-2,3.16,20.07,20.07,0,0,0-1.32,3.48,22.08,22.08,0,0,0-.78,7.33v.09a20.91,20.91,0,0,1-1,4.35,22.86,22.86,0,0,1-1.93,4,27.83,27.83,0,0,1-5.88,6.59,41,41,0,0,1-7.37,4.76,42.74,42.74,0,0,1-8.11,3.2Z" opacity="0.2"/><path d="M169.89,469.91s-7.1-8-2.15-20.13a33.15,33.15,0,0,0,2.88-15.06,23,23,0,0,0-4.52-12.44c-4.27-5.76-13.39-22.71,2.22-48.48,0,0-2,11.89,12.91,24.67,0,0,9.63,7.54,10.19,18.55a17,17,0,0,0,8.25,14.59s13.8,7.16,13.8,22l-3.62,46.19S194.33,493.08,169.89,469.91Z" fill="#0071f2"/><path d="M169.89,469.91s-7.1-8-2.15-20.13a33.15,33.15,0,0,0,2.88-15.06,23,23,0,0,0-4.52-12.44c-4.27-5.76-13.39-22.71,2.22-48.48,0,0-2,11.89,12.91,24.67,0,0,9.63,7.54,10.19,18.55a17,17,0,0,0,8.25,14.59s13.8,7.16,13.8,22l-3.62,46.19S194.33,493.08,169.89,469.91Z" opacity="0.2"/><path d="M176.83,420.17a30.66,30.66,0,0,1,9.81,11.74,26.85,26.85,0,0,1,1.46,3.6,31.65,31.65,0,0,1,.88,3.8,30.45,30.45,0,0,1,.24,7.81,45.23,45.23,0,0,0,0,15.09,21.46,21.46,0,0,0,2.5,7.08,14.36,14.36,0,0,0,2.27,3,15.53,15.53,0,0,0,3,2.29,13.6,13.6,0,0,1-5.79-5,22.07,22.07,0,0,1-2.88-7.2,36.3,36.3,0,0,1-.8-7.71,47.49,47.49,0,0,1,.54-7.72,28.11,28.11,0,0,0-2.25-14.68,31,31,0,0,0-3.82-6.53A33.85,33.85,0,0,0,176.83,420.17Z" opacity="0.2"/><polygon points="159.55 252.91 107.17 396.54 122.48 412.1 181.05 252.91 159.55 252.91" fill="#fff" opacity="0.36"/><polygon points="468.53 85.25 433.8 173.46 433.8 238.65 468.53 238.65 529.63 74.09 468.53 85.25" fill="#fff" opacity="0.36"/><polygon points="572.91 76.39 512.44 238.65 542.68 238.64 605.7 81.55 572.91 76.39" fill="#fff" opacity="0.36"/><path d="M652.84,315.84h32s22.09,42-1.23,60.75H652.71S679.69,353.51,652.84,315.84Z" fill="#2f2e41"/><path d="M208.76,499.1s2.28-5.93-1.85-9.5c0,0-20.89-14.29-1.92-31.89,0,0,12.09-10.52,11.27-22,0,0-5.47-12.61,6.47-17,0,0,13.31-3.3,9.19-23.64,0,0-5.49-23.65,18.7-35.19,0,0,10.17-7.7,10.17-15.4,0,0,5.23,6.6,3.3,23.92,0,0,.55,7.7-6,18.42,0,0-6.87,12.64-6.87,17.32,0,0-1.37,11,2.48,16.07,0,0,4.12,4.54-2.48,13.07,0,0-9.62,11.27-2.75,19.79,0,0,13.47,36.94-22.26,48.57H213.54Z" fill="#0071f2"/><path d="M219.22,501.72a12.47,12.47,0,0,0,3-3.42,27.74,27.74,0,0,0,2.12-4,52.16,52.16,0,0,0,2.76-8.71c1.44-5.94,1.79-12.07,2.66-18.15s1.71-12.14,2.7-18.19c.5-3,1-6.06,1.62-9.07a72.49,72.49,0,0,1,2.25-9v0l0,0c1-1.91,1.84-3.91,2.63-5.91a58.34,58.34,0,0,0,2.08-6.14,37,37,0,0,0,1.26-6.32,17.25,17.25,0,0,0-.35-6.33v-.07c-.32-4-.51-8-.44-12.05,0-2,.12-4,.31-6a31.42,31.42,0,0,1,1.06-5.92,32.27,32.27,0,0,0-.81,5.94c-.13,2-.15,4-.11,6,.08,4,.31,8,.72,12l0-.07a18.07,18.07,0,0,1,.52,6.62,34.79,34.79,0,0,1-1.2,6.5,61.56,61.56,0,0,1-2.06,6.24c-.8,2-1.66,4.06-2.64,6l0-.06a71.22,71.22,0,0,0-2.14,8.84c-.58,3-1.14,6-1.65,9q-1.53,9-2.81,18.15c-1,6-1.46,12.18-3,18.16a48.76,48.76,0,0,1-3,8.7,27.81,27.81,0,0,1-2.28,4A12.34,12.34,0,0,1,219.22,501.72Z" opacity="0.2"/></g><polygon points="481.11 543.02 549.05 406.56 607.44 407.28 526.82 555.91 481.11 543.02" fill="#f1f2f2" opacity="0.18"/><path d="M564.43,608.23v9.29a3.88,3.88,0,0,1-1.28,2.94c-6.29,5.48-19.13,6.73-19.13,6.73H529.19A178.86,178.86,0,0,1,500,624.78a1.13,1.13,0,0,1-.86-1.54.54.54,0,0,1,0-.11c.05-.08.1-.13.13-.19l.09-.11c3.41-3.36,16.45-7.06,16.45-7.06,14.35-1,21.88-10,21.88-10,1-3.17,10.93-3.88,10.93-3.88h10.7Z" fill="#0071f2"/><path d="M503,628.66c-6-1-4.57-4.27-3.85-5.42a1.13,1.13,0,0,0,.86,1.54,178.86,178.86,0,0,0,29.23,2.41H544s12.84-1.25,19.13-6.73a3.88,3.88,0,0,0,1.28-2.94C568.07,636.53,503,628.66,503,628.66Z" fill="#2f2e41"/><path d="M607.44,617.24c-3.16,8-17.83,16.72-17.83,16.72-23,13.46-35.06,7.73-35.06,7.73a3.37,3.37,0,0,1-1.82-3,1.48,1.48,0,0,1,0-.21c.46-8,26.66-22.57,26.66-22.57l.1,1.3Z" fill="#0071f2"/><path d="M607.44,617.24c-3.16,8-17.83,16.72-17.83,16.72-23,13.46-35.06,7.73-35.06,7.73a3.37,3.37,0,0,1-1.82-3,.23.23,0,0,1,0-.21c.27-.58,2.82-2.23,22.64-2.73a6.78,6.78,0,0,0,2.83-.69c5.2-2.54,23.85-12,27.25-17.85Z" fill="#2f2e41"/><path d="M607.44,617.24H579.5l-5.35-67.57c-.18-1.29-.39-2.57-.6-3.82a123.81,123.81,0,0,0-9.61-31.65c2.43,10,2.92,30.37,2.92,30.37v59.54c-.49,8.75-11.66,1.7-11.66,1.7-7.29-2.67-17.5,0-17.5,0l-.18-4.13L535,543.84c-1.21-24.05-7-51-7-51-6.8-20.65-10.22-88.9-10.22-88.9l5.12-5.14,51.52-9.47L600,398.74a243.77,243.77,0,0,1-2,48.4c0,9.71,2.68,41.55,2.68,41.55,3.4,10.69,5.83,39.61,5.83,39.61Z" fill="#2f2e41"/><path d="M540.85,263.43a71.17,71.17,0,0,1,11.55-5.77s14-6.19,22.1-4c0,0,3.77-.07,7.18,4l-13.15,83-6,66.58-27.7-3.37-4.38-16.8,4.37-110.81Z" fill="#e6e7e8"/><path d="M356.72,420.22s-.28-8.26-7.39-7.74l-15.26-1.58-.41,7.65Z" fill="#0071f2"/><path d="M356.72,420.22s-.28-8.26-7.39-7.74l-15.26-1.58-.41,7.65Z" fill="#fff" opacity="0.2"/><path d="M286.7,412.48h-.09a4.82,4.82,0,0,0-4.8,4.37l-6.16,65.26a5.7,5.7,0,0,0,5.11,6.2l81.89,8.1a5.7,5.7,0,0,0,6.22-5l4.41-38.13Z" fill="#0071f2"/><path d="M286.7,412.48h-.09a4.82,4.82,0,0,0-4.8,4.37l-6.16,65.26a5.7,5.7,0,0,0,5.11,6.2l81.89,8.1a5.7,5.7,0,0,0,6.22-5l4.41-38.13Z" fill="#fff" opacity="0.2"/><path d="M286.53,453.6l86.71,9.58a3.18,3.18,0,0,0,3.53-2.84l3.56-35.23a3.07,3.07,0,0,0-2.84-3.38l-90.25-6.55-3.41,35.1A3,3,0,0,0,286.53,453.6Z" fill="#0071f2"/><path d="M286.53,453.6l86.71,9.58a3.18,3.18,0,0,0,3.53-2.84l3.56-35.23a3.07,3.07,0,0,0-2.84-3.38l-90.25-6.55-3.41,35.1A3,3,0,0,0,286.53,453.6Z" fill="#0071f2"/><path d="M286.53,453.6l86.71,9.58a3.18,3.18,0,0,0,3.53-2.84l3.56-35.23a3.07,3.07,0,0,0-2.84-3.38l-90.25-6.55-3.41,35.1A3,3,0,0,0,286.53,453.6Z" fill="#fff" opacity="0.3"/><path d="M322.3,614.4A17.39,17.39,0,0,0,337.42,622a20.84,20.84,0,0,1,2.5,0c4.91.41,21.8,2.27,24.55,9a2.6,2.6,0,0,1-.88,3.07c-1.73,1.28-5.88,3-15.83,3.86l-33-2.21-14.1-28.14Z" fill="#0071f2"/><path d="M322.3,614.4A17.39,17.39,0,0,0,337.42,622a20.84,20.84,0,0,1,2.5,0c4.9.41,21.75,2.26,24.54,9a2.62,2.62,0,0,1-.85,3.06c-1.72,1.32-5.87,3.13-15.85,3.91l-33-2.21-14.1-28.14Z" opacity="0.2"/><path d="M286.91,620.64s-6.64,17.82,5.2,19.18c0,0,17.53,1.08,28.89,1.62,0,0,26.66,4.12,26.76-3.47a3.14,3.14,0,0,0-.95-2.18,28.84,28.84,0,0,0-21.95-8.4,12.35,12.35,0,0,1-5.9-1.12c-3.69-1.76-9.39-5-9.8-8.19Z" fill="#0071f2"/><path d="M350.63,446s-.36,34.39-7.59,63l-13,69.51-5.07,33.06a3.47,3.47,0,0,1-2.76,2.88l-11.42,2.26,26.12-108.43s10.44-35.73,13.27-62.27Z" fill="#2f2e41"/><path d="M350.63,446s-.36,34.39-7.59,63l-13,69.51-5.07,33.06a3.47,3.47,0,0,1-2.76,2.88l-11.42,2.26,26.12-108.43s10.44-35.73,13.27-62.27Z" opacity="0.2"/><path d="M350.31,266.25S361.09,277.67,360.6,289l0,18.3s-8.15-21.49-13.39-33.06Z" fill="#0071f2"/><path d="M350.31,266.25S361.09,277.67,360.6,289l0,18.3s-8.15-21.49-13.39-33.06Z" opacity="0.2"/><path d="M601.85,377.87,604,397.81l-26.77,6.1h0l-14.76,3.37-6.08-32.81a119.64,119.64,0,0,1,2.68-49.81c5.83-25.51,22.59-67,22.59-67a176.64,176.64,0,0,1,23.52,16.71c9.47,8.25,10.5,12.37,10.5,12.37Z" fill="#0071f2"/><path d="M601.85,377.87,604,397.81l-26.77,6.1h0s2.2-28.25-2.15-35.52c0,0-13.59-12.38-1.68-19.67,0,0,11.69-5.6,11.92-12.4,0,0-3.28-51.95,19.86-61.94,9.47,8.25,10.5,12.37,10.5,12.37Z" opacity="0.2"/><path d="M562.73,323.69q3.33-4.57,6.76-9.09c2.29-3,4.55-6,6.87-9l7-8.93.42-.54a1.58,1.58,0,0,0,.23-.47,1.68,1.68,0,0,0,0-1,2.36,2.36,0,0,0-.68-.94l-1-1-3.91-4.09-.84-.89h1.22l6.76,0,1.68,0a1.74,1.74,0,0,0,1.24-.48,1.84,1.84,0,0,0,.41-.55l.32-.76.63-1.57q2.55-6.27,5.24-12.47-2.22,6.39-4.57,12.73l-.58,1.59-.31.81a2.65,2.65,0,0,1-2.37,1.59l-1.69,0-6.76,0,.37-.87,4,4,1,1a3.43,3.43,0,0,1,.95,1.35,2.87,2.87,0,0,1,0,1.74,2.77,2.77,0,0,1-.41.78l-.45.58-7.06,8.85c-2.35,3-4.76,5.85-7.14,8.78S565.17,320.81,562.73,323.69Z" opacity="0.2"/><path d="M535.27,336.8c-1.95,16.29-.48,67.1-.48,67.1H516.07c0-13.57,1.94-44.75,1.94-44.75l-51.17,18.3a1.8,1.8,0,0,1-2.4-1.65c0-.46-.05-.93-.1-1.4v0c0-.21-.06-.42-.08-.63h0c-.66-5.06-3-10.7-4.49-13.89-.21-.47-.41-.89-.58-1.24a1.46,1.46,0,0,1,.77-2l40.56-16.41c8.26-4.62,10-34.26,10-34.26a40.45,40.45,0,0,1,7.26-24.55c9-12.91,23.11-18,23.11-18C541.59,268.52,535.27,336.8,535.27,336.8Z" fill="#0071f2"/><path d="M513.64,322.22c2.43,8.76-5.11,10.24-5.11,10.24-3.64,2.24.25,5.32.25,5.32,3.61,3.93,2.19,6.56,2.19,6.56-9-5.59-17,2-17,2A21.39,21.39,0,0,1,477.63,352a12.28,12.28,0,0,0-6.79,1.22,6.13,6.13,0,0,0-3.18,5.74c.31,7.22-3.22,14.39-3.4,14.74-.76-5.79-3.7-12.31-5.07-15.12a1.46,1.46,0,0,1,.77-2l40.56-16.41c8.26-4.62,10-34.26,10-34.26a40.47,40.47,0,0,1,7.26-24.55h0C511.67,292.57,513.64,322.22,513.64,322.22Z" opacity="0.2"/><polygon points="511.58 361.46 519.47 334.86 518.01 359.16 511.58 361.46" opacity="0.2"/><path d="M529.44,276.3c.13,1.9.18,3.81.28,5.71l.16,5.71-.51-.44c2.18-.38,4.36-.72,6.55-1.07l1-.17-.46.95c-1.09,2.2-2.17,4.39-3.28,6.57l.06-.28q.26,4.8.39,9.61c.1,3.2.16,6.41.15,9.62-.38-3.19-.68-6.38-.94-9.58s-.51-6.39-.7-9.59v-.14l.06-.14q1.62-3.29,3.29-6.55l.57.78c-2.19.3-4.38.61-6.58.87l-.52.06v-.5l.16-5.71C529.25,280.11,529.31,278.2,529.44,276.3Z" opacity="0.2"/><path d="M573.55,545.85a123.81,123.81,0,0,0-9.61-31.65c2.43,10,2.92,30.37,2.92,30.37v59.54c-.49,8.75-11.66,1.7-11.66,1.7-7.29-2.67-17.5,0-17.5,0l-.18-4.13s19.13,2.19,20.34-12.4c0,0,7.77-47.14,4.74-70l-6.44-27s-8-51.27-1.18-65.86c0,0-.76,57.84,11.15,81.65a195.28,195.28,0,0,1,7.43,37.73Z" opacity="0.2"/><path d="M578.46,604.12s8.57,16.51,29,7.77v5.35H579.5Z" opacity="0.2"/><polygon points="510.33 391.1 574.28 427.62 595.49 392.28 532.37 355.59 510.33 391.1" fill="#f1f2f2"/><path d="M563.6,373.74c-.23,7.51-5,13.45-8.93,17.11A25.05,25.05,0,0,1,546,396c-10.14,3.67-10.87,9.25-10.87,9.25l31,17.69s4.54-11.28,3.67-19l6.75-22.66Z" opacity="0.2"/><path d="M455.76,375.88a1.86,1.86,0,0,1-.82.19,1.89,1.89,0,0,1-1.24-.46l-5.51-4.77-3.85-3.34,4.78,5.5,2,4.65s.33.05.89.09a2.31,2.31,0,0,1-1,1.54,2.35,2.35,0,0,1-1.34.41,2.47,2.47,0,0,1-1.77-.77l-6.13-6.64,4.56,5.86a2.37,2.37,0,0,1-1.87,3.82,2.48,2.48,0,0,1-1.28-.37l-4.19-2.7s-7.88,1.09-10.81-2.08a7.19,7.19,0,0,0-6.23-2.53c-.26,0-.53.08-.8.14v-13s9.78-13.68,18.73-8h0l15.36,11.28a2.14,2.14,0,0,1,.47,3,2.18,2.18,0,0,1-1.73.88,2.15,2.15,0,0,1-1.36-.49l-3.48-3.63a1,1,0,0,0-1.8.73,1,1,0,0,0,.4.82l8.41,6.71A1.88,1.88,0,0,1,455.76,375.88Z" fill="#f7a48b"/><path d="M356.2,373.74l1.39,36.51c1.38,7.17-11.06,7.23-11.06,7.23L309,420.74c-10.85.61-17.74-2.59-21.72-5.56a8.68,8.68,0,0,1-3.1-9.42l3.77-12.7a75.17,75.17,0,0,0,3.1-21.32v-67c.27-44.48,23.2-49.73,23.2-49.73,26.24-10.23,43.09,41.15,43.09,41.15,2.2,4.53,4.36,15.38,6,25.62,1.87,11.61,3.12,22.45,3.12,22.45,2.46,6.51,17.33,10.94,30.95,13.67h0c12.38,2.49,23.72,3.58,23.72,3.58l1.4,19.22C398.72,383.22,356.2,373.74,356.2,373.74Z" fill="#0071f2"/><path d="M356.2,373.74l.52,13.57S323.33,360,319.18,333.72C319.18,333.72,330.51,355.2,356.2,373.74Z" opacity="0.2"/><path d="M397.37,357.88c-23.43,1.23-25.42-5.07-25.42-5.07-1.38-1.52-2.83.07-3.86,1.79a1.2,1.2,0,0,1-2.17-.26c-1.27-3.92-3.64-9.84-3.64-9.84-3.31-6.64-9.14-30.12-9.14-30.12-2.79-19.34-14.06-33.71-14.06-33.71,16.85,13,24.22,41.09,24.22,41.09,1.87,11.61,3.12,22.45,3.12,22.45C368.88,350.72,383.75,355.15,397.37,357.88Z" opacity="0.2"/><path d="M350.63,417l.41,21.55a73.73,73.73,0,0,1-.4,9.51v0c-2.82,26.54-13.75,60.1-13.75,60.1L310.76,616.68a1.83,1.83,0,0,1-1.6,1.4l-11.78,1.27h0l-11.78,1.27a1.85,1.85,0,0,1-2-1.82c-.14-11.21,5.55-44.68,5.55-44.68,4.71-33.3,6.15-52.85,6.15-52.85l.07-17.18v-.2l.35-84.56c6.77,2.1,15.5,1.2,15.5,1.2Z" fill="#2f2e41"/><path d="M290.91,598c-1.46,19.18,6.47,21.32,6.47,21.32h0l-11.78,1.27a1.85,1.85,0,0,1-2-1.82c-.14-11.21,5.55-44.68,5.55-44.68,4.71-33.3,6.15-52.85,6.15-52.85l.07-17.18c.08,6.47,5.36,14,5.36,17.54a24.83,24.83,0,0,1-1.9,10.37,12.19,12.19,0,0,0-1,5.9,71.33,71.33,0,0,1-3.68,26.81Z" opacity="0.2"/><path d="M370.54,194.66l-1-2.18c-5.56,5.15-20.8,4.36-20.8,4.36-6.34.19-6.34,1.58-6.34,1.58-4.36,3.17.59,6.33.59,6.33,4.36,3.57,1.59,6.15,1.59,6.15l-7.93,8.91a8.71,8.71,0,0,0-4.54-.85,4.92,4.92,0,0,0-4.49,4.19v0s-14.33-10.69-13.54-21.78c.95-13.25,20.8-16.45,20.8-16.45,1.59-8.51,17.83-12.28,17.83-12.28,13.87-2.57,12.47,3.17,12.47,3.17a6.44,6.44,0,0,0,2.15,4.71,12.73,12.73,0,0,1,3.37,5.83A15.38,15.38,0,0,1,370.54,194.66Z" fill="#2f2e41"/><path d="M369.34,241C366,248.73,351,242.58,351,242.58c-4.27,7.74-2.5,19.29-2.5,19.29-7.56-9.43-20.73-14.6-20.73-14.6l4.32-16.57a8,8,0,0,1-4.48-7.52v0a4.92,4.92,0,0,1,4.49-4.19,8.71,8.71,0,0,1,4.54.85l7.93-8.91s2.77-2.58-1.59-6.15c0,0-4.95-3.16-.59-6.33,0,0,0-1.39,6.34-1.58,0,0,15.24.79,20.8-4.36l1,2.18C380.64,223.58,369.34,241,369.34,241Z" fill="#f9b499"/><path d="M370.54,194.66C363,201.4,348.35,200,348.35,200c-6.73-.19-4.76,3.18-4.76,3.18,4.76,4.54,3.18,7.51,3.18,7.51l-10.11,9.12,7.93-8.91s2.77-2.58-1.59-6.15c0,0-4.95-3.16-.59-6.33,0,0,0-1.39,6.34-1.58,0,0,15.24.79,20.8-4.36Z" fill="#f7a48b"/><path d="M351,242.58a12.33,12.33,0,0,1-8.39-4.94s-1.36,11.64,5.55,17.21A35.61,35.61,0,0,1,351,242.58Z" fill="#f7a48b"/><ellipse cx="334.78" cy="226.05" rx="1.88" ry="2.87" transform="translate(-69.13 220.54) rotate(-33.25)" fill="#f7a48b"/><path d="M319.28,253.74s1.5-8.65,8.5-6.48c0,0,13,4.67,20.73,14.61a8.89,8.89,0,0,1,1.8,4.38c.44,3.47,1.09,10.06.4,14.42C350.71,280.67,337.37,252.4,319.28,253.74Z" fill="#2f2e41"/><path d="M464.34,374.38v0c-4.5,3.41-10.16,3.45-12.33,3.32-.56,0-.89-.09-.89-.09l-2-4.65-5.41-6,10,8.61a1.89,1.89,0,0,0,1.24.46,1.86,1.86,0,0,0,.82-.19,1.88,1.88,0,0,0,.36-3.17L447.71,366a1,1,0,0,1-.4-.82,1,1,0,0,1,1.8-.73l3.48,3.63a2.15,2.15,0,0,0,1.36.49,2.18,2.18,0,0,0,1.73-.88,2.14,2.14,0,0,0-.47-3l-15.36-11.28c6.7-3,14,6.4,14,6.4h5.88a.08.08,0,0,1,0,0c1.5,3.19,3.83,8.83,4.49,13.89h0C464.28,374,464.32,374.17,464.34,374.38Z" fill="#f9b499"/><path d="M452,377.74c-.56,0-.89-.09-.89-.09l-2-4.65,2.34,2.7A2.39,2.39,0,0,1,452,377.74Z" fill="#f7a48b"/><path d="M556.58,399.28,572.2,409,602,379.08s12.51-11.41,13.72-27c0,0,10.45-64.4-3.89-67.8,0,0-21.64-8-23.09,34.51l-1.54,29.4Z" fill="#0071f2"/><path d="M569.77,407.47s-6,17.79-14.79,11.22h0c-.31,0-8.78,0-9-4.86a4.11,4.11,0,0,1,.83-2.56l2.85-3.93a.51.51,0,0,0-.59-.78,16.89,16.89,0,0,1-4.7.89,1.44,1.44,0,0,1-1.52-1.52,1.36,1.36,0,0,1,.7-1.18,15.59,15.59,0,0,1,5.34-1.87l7.71-3.6Z" fill="#f9b499"/><path d="M553.77,418.18a.23.23,0,0,1-.1.45c-2.46-.21-7.53-1.09-7.71-4.8a4.11,4.11,0,0,1,.83-2.56l2.85-3.93a.51.51,0,0,0-.58-.78,17.27,17.27,0,0,1-4.71.89,1.44,1.44,0,0,1-1.52-1.52v0a31.64,31.64,0,0,0,7.09-.58,1.47,1.47,0,0,1,1.7,2.09,10.19,10.19,0,0,1-1.75,2.3S547.26,415,553.77,418.18Z" fill="#f7a48b"/><path d="M570.63,233l4.53,24.18L563,270.76c-12,11.25-10.6-2.58-10.6-2.58V246.45c-22.63,9.05-22.77-15.22-22.77-15.22a3.46,3.46,0,0,1-2.24-1.26c-1.08-1.48-.63-4.23,1.45-6.7a2.29,2.29,0,0,0,.48-2,42.31,42.31,0,0,1-1-6.42c-.1-1.31-.15-2.58-.14-3.8a44,44,0,0,1,.78-7.72c.21-1.1.46-2.11.7-3,0,0,1.07-1.7,2.34.65,2.59,4.79,8.15,4.39,8.15,4.39a3.81,3.81,0,0,1,.64-3.62c3.88,11.9,10.65,10.22,10.65,10.22a4.94,4.94,0,0,1,0-3.75c1.6,5.81,16.64,10.74,16.64,10.74a11.9,11.9,0,0,0,.76,3.16,5,5,0,0,0,.66,1.24c3.36-3.5,5.69.38,5.69.38,3.1,5.61-3.37,8.79-4.39,9.25A.42.42,0,0,1,570.63,233Z" fill="#f9b499"/><path d="M568.81,222.07c-5.33,2-14.6-6.78-14.6-6.78a4.74,4.74,0,0,0,0,1.68c-6,1.31-12.93-8.28-12.93-8.28-1.16.77,0,1.94,0,1.94a16.22,16.22,0,0,1-12.35-7.33c.21-1.1.46-2.11.7-3,0,0,1.07-1.7,2.34.65,2.59,4.79,8.15,4.39,8.15,4.39a3.81,3.81,0,0,1,.64-3.62c3.88,11.9,10.65,10.22,10.65,10.22a4.94,4.94,0,0,1,0-3.75c1.6,5.81,16.64,10.74,16.64,10.74A11.9,11.9,0,0,0,568.81,222.07Z" fill="#f7a48b"/><ellipse cx="570.02" cy="227.94" rx="3.16" ry="2.43" transform="translate(42.52 541.99) rotate(-52.56)" fill="#f7a48b"/><path d="M577.4,229.63a27,27,0,0,1-6.63,3.31c1-.46,7.49-3.64,4.39-9.25,0,0-2.33-3.88-5.69-.38a5,5,0,0,1-.66-1.24,11.9,11.9,0,0,1-.76-3.16s-15-4.93-16.64-10.74a4.94,4.94,0,0,0,0,3.75s-6.77,1.68-10.65-10.22a3.81,3.81,0,0,0-.64,3.62s-5.56.4-8.15-4.39c-1.27-2.35-2.34-.65-2.34-.65-.24.91-.49,1.92-.7,3a44,44,0,0,0-.78,7.72l-.06,0a10.7,10.7,0,0,1-4.15-4.58,2.06,2.06,0,0,1-.12-.26c-1-2.33-1.25-5.54.68-9.72h0c.3-.56,10.15-18.61,28.5-18.29,0,0,13.13-.32,15.8,9.56,0,0,15.62-3.86,19.51,12C588.32,199.68,591.93,219.7,577.4,229.63Z" fill="#2f2e41"/><path d="M579.57,205.11c1.08,1.73,6.79,12.11-2.17,24.52a27,27,0,0,1-6.63,3.31c1-.46,7.49-3.64,4.39-9.25,0,0-2.33-3.88-5.69-.38a5,5,0,0,1-.66-1.24,11.9,11.9,0,0,1-.76-3.16s-15-4.93-16.64-10.74a4.94,4.94,0,0,0,0,3.75s-6.77,1.68-10.65-10.22a3.81,3.81,0,0,0-.64,3.62s-5.56.4-8.15-4.39c-1.27-2.35-2.34-.65-2.34-.65-.24.91-.49,1.92-.7,3a44,44,0,0,0-.78,7.72l-.06,0a12.16,12.16,0,0,1-4.15-4.58,2.06,2.06,0,0,1-.12-.26c-1.11-2.4-1.46-5.65.68-9.72h0c.25-.07,8.45-2.49,11.33-6.47,0,0,9.23-13.43,26.07-1.14a14.74,14.74,0,0,0-3.77-4.58.23.23,0,0,1,.18-.41c2.12.52,6.35,2.35,8.14,8.89,0,0,11.76.42,16.36,10.58a.41.41,0,0,1-.45.56c-.88-.19-2.27-.3-2.8.61A.63.63,0,0,0,579.57,205.11Z" opacity="0.2"/><path d="M552.4,246.45a17.92,17.92,0,0,0,7.79-6.94s6.45,8.56-7.79,18.15Z" fill="#f7a48b"/><g id="e37e942a-8264-442d-800c-6d764dbfd862" data-name="freepik--Gears--inject-67"><path d="M669.53,207.25a11.35,11.35,0,0,0,2.11,2.16l-1.76,4.16,4.53,1.93,1.69-4a11.15,11.15,0,0,0,3.26.21l1.9,4.71,4.61-1.87-1.77-4.33a11.33,11.33,0,0,0,3.16-2.77l4.17,1.76,1.93-4.54L689.43,203a10.89,10.89,0,0,0,.13-3.86l3.9-1.58L691.59,193l-3.76,1.53a11,11,0,0,0-3.14-3.15l1.68-4-4.54-1.93-1.76,4.17a11,11,0,0,0-3,0l-1.8-4.44L670.65,187l1.74,4.31a11.34,11.34,0,0,0-3.15,3.14l-4-1.68-1.93,4.54,4.18,1.75a11,11,0,0,0,.09,3.62l-4.31,1.76,1.87,4.59Zm4.77-8.42a4.54,4.54,0,1,1,2.43,6,4.53,4.53,0,0,1-2.43-6Z" fill="#0071f2"/><g opacity="0.5"><path d="M669.53,207.25a11.35,11.35,0,0,0,2.11,2.16l-1.76,4.16,4.53,1.93,1.69-4a11.15,11.15,0,0,0,3.26.21l1.9,4.71,4.61-1.87-1.77-4.33a11.33,11.33,0,0,0,3.16-2.77l4.17,1.76,1.93-4.54L689.43,203a10.89,10.89,0,0,0,.13-3.86l3.9-1.58L691.59,193l-3.76,1.53a11,11,0,0,0-3.14-3.15l1.68-4-4.54-1.93-1.76,4.17a11,11,0,0,0-3,0l-1.8-4.44L670.65,187l1.74,4.31a11.34,11.34,0,0,0-3.15,3.14l-4-1.68-1.93,4.54,4.18,1.75a11,11,0,0,0,.09,3.62l-4.31,1.76,1.87,4.59Zm4.77-8.42a4.54,4.54,0,1,1,2.43,6,4.53,4.53,0,0,1-2.43-6Z" fill="#fff"/></g><path d="M109.65,306.79a11.66,11.66,0,0,0,2.1,2.17L110,313.12l4.53,1.93,1.69-4a10.83,10.83,0,0,0,3.26.22l1.9,4.7,4.61-1.87-1.77-4.33a11.33,11.33,0,0,0,3.16-2.77l4.17,1.76,1.93-4.53-3.93-1.72a10.83,10.83,0,0,0,.13-3.85l3.9-1.59-1.87-4.54L128,294.05a11.08,11.08,0,0,0-3.14-3.15l1.68-4L122,285l-1.76,4.18a10.26,10.26,0,0,0-3,0l-1.8-4.45-4.59,1.87,1.74,4.31a11.62,11.62,0,0,0-3.15,3.14l-4-1.68-1.93,4.54,4.18,1.76a10.94,10.94,0,0,0,.09,3.61L103.4,304l1.87,4.6Zm4.77-8.41a4.54,4.54,0,1,1,2.43,6,4.54,4.54,0,0,1-2.43-6Z" fill="#0071f2"/><g opacity="0.5"><path d="M109.65,306.79a11.66,11.66,0,0,0,2.1,2.17L110,313.12l4.53,1.93,1.69-4a10.83,10.83,0,0,0,3.26.22l1.9,4.7,4.61-1.87-1.77-4.33a11.33,11.33,0,0,0,3.16-2.77l4.17,1.76,1.93-4.53-3.93-1.72a10.83,10.83,0,0,0,.13-3.85l3.9-1.59-1.87-4.54L128,294.05a11.08,11.08,0,0,0-3.14-3.15l1.68-4L122,285l-1.76,4.18a10.26,10.26,0,0,0-3,0l-1.8-4.45-4.59,1.87,1.74,4.31a11.62,11.62,0,0,0-3.15,3.14l-4-1.68-1.93,4.54,4.18,1.76a10.94,10.94,0,0,0,.09,3.61L103.4,304l1.87,4.6Zm4.77-8.41a4.54,4.54,0,1,1,2.43,6,4.54,4.54,0,0,1-2.43-6Z" fill="#fff"/></g><path d="M255.05,185.6a10.85,10.85,0,0,0,2.11,2.17l-1.76,4.17,4.54,1.93,1.69-4a11.07,11.07,0,0,0,3.25.22l1.91,4.69,4.6-1.87-1.77-4.33a11.37,11.37,0,0,0,3.17-2.77l4.17,1.77,1.93-4.54-4-1.72a11.18,11.18,0,0,0,.13-3.87l3.9-1.57-1.87-4.61-3.76,1.53a11.35,11.35,0,0,0-3.14-3.15l1.68-4-4.54-1.93-1.76,4.17a11.82,11.82,0,0,0-3,0l-1.8-4.43-4.54,1.86,1.72,4.26a11.59,11.59,0,0,0-3.16,3.16l-4-1.69-1.93,4.53,4.18,1.76a11,11,0,0,0,.09,3.62l-4.31,1.74,1.87,4.61Zm4.77-8.4a4.54,4.54,0,1,1,2.43,6,4.54,4.54,0,0,1-2.43-6Z" fill="#0071f2"/><g opacity="0.5"><path d="M255.05,185.6a10.85,10.85,0,0,0,2.11,2.17l-1.76,4.17,4.54,1.93,1.69-4a11.07,11.07,0,0,0,3.25.22l1.91,4.69,4.6-1.87-1.77-4.33a11.37,11.37,0,0,0,3.17-2.77l4.17,1.77,1.93-4.54-4-1.72a11.18,11.18,0,0,0,.13-3.87l3.9-1.57-1.87-4.61-3.76,1.53a11.35,11.35,0,0,0-3.14-3.15l1.68-4-4.54-1.93-1.76,4.17a11.82,11.82,0,0,0-3,0l-1.8-4.43-4.54,1.86,1.72,4.26a11.59,11.59,0,0,0-3.16,3.16l-4-1.69-1.93,4.53,4.18,1.76a11,11,0,0,0,.09,3.62l-4.31,1.74,1.87,4.61Zm4.77-8.4a4.54,4.54,0,1,1,2.43,6,4.54,4.54,0,0,1-2.43-6Z" fill="#fff"/></g></g><g id="b901c145-a1d4-4b29-9098-21bae61eea9e" data-name="freepik--Puzzle--inject-67"><path d="M455.33,104.46v38.8H338.91V26.86h10.5s7.15,2,9.52,7.72c2.14,5.06-1.05,11.16-1.78,12.47l-.12.22h0a17.68,17.68,0,1,0,30.62,0h0a.57.57,0,0,1-.13-.21c-.73-1.29-3.92-7.39-1.8-12.47,2.39-5.67,9.54-7.72,9.54-7.72h60.1V58.66s-2.05,7.16-7.72,9.54c-5.06,2.13-11.16-1.06-12.48-1.78L435,66.3h0a17.39,17.39,0,0,0-8.87-2.39,17.68,17.68,0,1,0,8.87,33h0l.2-.12c1.29-.73,7.4-3.93,12.48-1.8C453.27,97.3,455.33,104.46,455.33,104.46Z" fill="#0071f2"/><g opacity="0.6"><path d="M455.33,104.46v38.8H338.91V26.86h10.5s7.15,2,9.52,7.72c2.14,5.06-1.05,11.16-1.78,12.47l-.12.22h0a17.68,17.68,0,1,0,30.62,0h0a.57.57,0,0,1-.13-.21c-.73-1.29-3.92-7.39-1.8-12.47,2.39-5.67,9.54-7.72,9.54-7.72h60.1V58.66s-2.05,7.16-7.72,9.54c-5.06,2.13-11.16-1.06-12.48-1.78L435,66.3h0a17.39,17.39,0,0,0-8.87-2.39,17.68,17.68,0,1,0,8.87,33h0l.2-.12c1.29-.73,7.4-3.93,12.48-1.8C453.27,97.3,455.33,104.46,455.33,104.46Z" fill="#fff"/></g><path d="M571.67,26.86V143.15H556.12c-1.14-.39-7.19-2.55-9.34-7.66s1.06-11.14,1.78-12.47l.14-.22h0a17.4,17.4,0,0,0,2.38-8.85,17.66,17.66,0,1,0-32.94,8.87h0l.13.21c.73,1.28,3.91,7.38,1.78,12.47s-8.15,7.27-9.33,7.66H455.33V104.39s-2.05-7.16-7.72-9.54c-5-2.11-11.14,1.07-12.47,1.79l-.2.13h0a17.67,17.67,0,1,1-8.87-32.89,17.4,17.4,0,0,1,8.85,2.38h0a1.28,1.28,0,0,0,.21.14c1.29.72,7.39,3.91,12.47,1.78,5.67-2.37,7.71-9.53,7.71-9.53V26.9Z" fill="#0071f2"/><path d="M571.67,26.86V143.15H556.12c-1.14-.39-7.19-2.55-9.34-7.66s1.06-11.14,1.78-12.47l.14-.22h0a17.4,17.4,0,0,0,2.38-8.85,17.66,17.66,0,1,0-32.94,8.87h0l.13.21c.73,1.28,3.91,7.38,1.78,12.47s-8.15,7.27-9.33,7.66H455.33V104.39s-2.05-7.16-7.72-9.54c-5-2.11-11.14,1.07-12.47,1.79l-.2.13h0a17.67,17.67,0,1,1-8.87-32.89,17.4,17.4,0,0,1,8.85,2.38h0a1.28,1.28,0,0,0,.21.14c1.29.72,7.39,3.91,12.47,1.78,5.67-2.37,7.71-9.53,7.71-9.53V26.9Z" fill="#fff" opacity="0.5" style="isolation:isolate"/></g></svg>