<svg xmlns="http://www.w3.org/2000/svg" xmlns:xlink="http://www.w3.org/1999/xlink" width="865.76" height="682.89" viewBox="0 0 865.76 682.89"><defs><clipPath id="a"><path d="M-708,581.58s-93.38-64-97.15-194.88c-1.17-40.53,20.29-78.5,56-97.71l1.67-.89a302.26,302.26,0,0,0,68.94-49.36c14-13.39,30.88-30.37,49.81-51,0,0,174.91-245.38,371.22-147.23,0,0,196.3,62.92,149.74,363.67,0,0-39.54,297.15-450.68,243.71a295.82,295.82,0,0,1-100.07-31.42C-675.6,607.42-693.25,595.9-708,581.58Z" fill="none"/></clipPath></defs><g clip-path="url(#a)"><rect x="-221.47" y="347.4" width="476.57" height="314" fill="#e6e6e6"/><polygon points="237.72 238.28 -842.79 238.28 -733.67 336.27 249.53 336.27 237.72 238.28" fill="#ccc"/><rect x="-733.67" y="336.27" width="983.2" height="11.13" fill="#999"/></g><path d="M829.84,489.43c-.33.55-.66,1.11-1,1.66-.23.37-.45.73-.69,1.1a104.4,104.4,0,0,1-7.61,10.48l-.88,1.07-.45.53c-.34.41-.7.82-1.06,1.23l-1,1.14-1.48,1.64c-.68.73-1.37,1.46-2.06,2.18L812.1,512c-.56.57-1.13,1.13-1.71,1.69-.07.08-.15.15-.23.23-.55.53-1.1,1.06-1.66,1.58l-1.86,1.72q-1.68,1.53-3.42,3c-.39.34-.78.68-1.18,1s-.8.68-1.21,1-1,.86-1.56,1.29c-1.26,1-2.56,2.05-3.87,3.06-.44.35-.89.68-1.34,1-.62.48-1.26,1-1.89,1.42l-1.74,1.27-1.88,1.34c-1,.69-1.93,1.37-2.92,2l-1.82,1.23q-4.24,2.83-8.68,5.57l-1.8,1.09c-9.06,5.48-18.66,10.56-28.53,15.27l-3.91,1.84-2,.91q-3,1.36-6,2.69l-2,.88q-5,2.19-10.1,4.25c-1.12.46-2.24.91-3.37,1.35-5.64,2.25-11.3,4.4-16.93,6.42l-1.65.59-1.61.58-2.16.76q-4.2,1.47-8.39,2.87l-2.29.76c-2.89,1-5.77,1.88-8.62,2.78l-2,.64-3.11,1-4.78,1.44c-1.58.48-3.16.94-4.72,1.39q-3.82,1.13-7.56,2.16l-2.2.61c-4.14,1.16-8.18,2.24-12.09,3.25l-3.42.89-1.69.42c-1.11.28-2.2.56-3.29.82h0l-2.11.52-2.09.51-3.74.9-3,.72L615,599.91l-4.66,1L610,601l-.53.11-1.71.37-1.67.36-1.62.35-3.67.77-.19,0-2.17.45c-4.93,1-8.95,1.76-11.86,2.29l-.8.15-2.31.41-.7.12-1,.17-.29,0h-.08l-.11,0h0c-2,.24-3.92.49-5.88.71l-.6.07-3.53.41c-2,.23-3.95.43-5.92.64l-3.91.4q-3.89.39-7.73.74l-3.69.33h-.13l-5.29.42c-1.48.13-3,.24-4.41.34-.66.06-1.32.1-2,.14-3.25.23-6.46.44-9.64.61-2,.11-3.93.22-5.86.3s-3.63.18-5.42.25H517l-5.08.19c-3.68.11-7.31.21-10.89.26l-4.58.06q-8.5.07-16.64-.07c-2.13,0-4.23-.09-6.32-.15h-.74c-2.2-.07-4.38-.14-6.53-.23-3.38-.14-6.72-.3-10-.5l-3.28-.2c-2.17-.13-4.31-.29-6.44-.45l-3.18-.25-3.15-.27-3.11-.28c-2.32-.22-4.63-.45-6.89-.69s-4.52-.5-6.74-.77l-3.31-.42-3.27-.43c-1.09-.14-2.16-.3-3.24-.45l-3.2-.47-2.71-.41-1.27-.2c-1.82-.28-3.61-.58-5.39-.88q-7.67-1.31-14.86-2.8-13.62-2.82-25.61-6.16l-.65-.18-2.79-.79c-5.89-1.69-11.49-3.46-16.79-5.26l-2.47-.86q-2.5-.89-4.92-1.77-4.86-1.78-9.36-3.62l-2.67-1.1q-4-1.65-7.64-3.3c-.51-.23-1-.47-1.52-.69l-2.39-1.11q-2.46-1.15-4.8-2.31l-1.37-.68-1.35-.68-2.62-1.35-1.29-.67c-.41-.23-.84-.45-1.25-.67s-.83-.44-1.23-.67l-2.41-1.32c-1.18-.66-2.32-1.31-3.44-2l-1.24-.73-2-1.19-2.46-1.51-1.05-.66a172.51,172.51,0,0,1-15.43-10.87c-.19-.16-.39-.32-.59-.46a.15.15,0,0,0-.07-.07l-.52-.43c-1-.82-1.92-1.59-2.71-2.27l-.39-.33-.52-.47c-.18-.15-.35-.31-.51-.46-.74-.66-1.33-1.21-1.76-1.63a24.46,24.46,0,0,0-2.32-2c-25.17-18.73-75.62-24.59-75.62-24.59a395.73,395.73,0,0,1-61.68-16.5C16.53,462.5,19.16,371.87,19.16,371.87-9.47,164,204.89,158.46,204.89,158.46c113.94-9.56,191.25-31.71,191.25-31.71C599.42,23.81,665.44,135,665.44,135c28.66,31.28,111.19,122.49,111.19,122.49,32.14,33,53.21,78.72,53.21,78.72C873.49,416.66,829.84,489.43,829.84,489.43Z" fill="#0071f2"/><path d="M829.84,489.43c-.33.55-.66,1.11-1,1.66-.23.37-.45.73-.69,1.1a104.4,104.4,0,0,1-7.61,10.48l-.88,1.07-.45.53c-.34.41-.7.82-1.06,1.23l-1,1.14-1.48,1.64c-.68.73-1.37,1.46-2.06,2.18L812.1,512c-.56.57-1.13,1.13-1.71,1.69-.07.08-.15.15-.23.23-.55.53-1.1,1.06-1.66,1.58l-1.86,1.72q-1.68,1.53-3.42,3c-.39.34-.78.68-1.18,1s-.8.68-1.21,1-1,.86-1.56,1.29c-1.26,1-2.56,2.05-3.87,3.06-.44.35-.89.68-1.34,1-.62.48-1.26,1-1.89,1.42l-1.74,1.27-1.88,1.34c-1,.69-1.93,1.37-2.92,2l-1.82,1.23q-4.24,2.83-8.68,5.57l-1.8,1.09c-9.06,5.48-18.66,10.56-28.53,15.27l-3.91,1.84-2,.91q-3,1.36-6,2.69l-2,.88q-5,2.19-10.1,4.25c-1.12.46-2.24.91-3.37,1.35-5.64,2.25-11.3,4.4-16.93,6.42l-1.65.59-1.61.58-2.16.76q-4.2,1.47-8.39,2.87l-2.29.76c-2.89,1-5.77,1.88-8.62,2.78l-2,.64-3.11,1-4.78,1.44c-1.58.48-3.16.94-4.72,1.39q-3.82,1.13-7.56,2.16l-2.2.61c-4.14,1.16-8.18,2.24-12.09,3.25l-3.42.89-1.69.42c-1.11.28-2.2.56-3.29.82h0l-2.11.52-2.09.51-3.74.9-3,.72L615,599.91l-4.66,1L610,601l-.53.11-1.71.37-1.67.36-1.62.35-3.67.77-.19,0-2.17.45c-4.93,1-8.95,1.76-11.86,2.29l-.8.15-2.31.41-.7.12-1,.17-.29,0h-.08l-.11,0h0c-2,.24-3.92.49-5.88.71l-.6.07-3.53.41c-2,.23-3.95.43-5.92.64l-3.91.4q-3.89.39-7.73.74l-3.69.33h-.13l-5.29.42c-1.48.13-3,.24-4.41.34-.66.06-1.32.1-2,.14-3.25.23-6.46.44-9.64.61-2,.11-3.93.22-5.86.3s-3.63.18-5.42.25H517l-5.08.19c-3.68.11-7.31.21-10.89.26l-4.58.06q-8.5.07-16.64-.07c-2.13,0-4.23-.09-6.32-.15h-.74c-2.2-.07-4.38-.14-6.53-.23-3.38-.14-6.72-.3-10-.5l-3.28-.2c-2.17-.13-4.31-.29-6.44-.45l-3.18-.25-3.15-.27-3.11-.28c-2.32-.22-4.63-.45-6.89-.69s-4.52-.5-6.74-.77l-3.31-.42-3.27-.43c-1.09-.14-2.16-.3-3.24-.45l-3.2-.47-2.71-.41-1.27-.2c-1.82-.28-3.61-.58-5.39-.88q-7.67-1.31-14.86-2.8-13.62-2.82-25.61-6.16l-.65-.18-2.79-.79c-5.89-1.69-11.49-3.46-16.79-5.26l-2.47-.86q-2.5-.89-4.92-1.77-4.86-1.78-9.36-3.62l-2.67-1.1q-4-1.65-7.64-3.3c-.51-.23-1-.47-1.52-.69l-2.39-1.11q-2.46-1.15-4.8-2.31l-1.37-.68-1.35-.68-2.62-1.35-1.29-.67c-.41-.23-.84-.45-1.25-.67s-.83-.44-1.23-.67l-2.41-1.32c-1.18-.66-2.32-1.31-3.44-2l-1.24-.73-2-1.19-2.46-1.51-1.05-.66a172.51,172.51,0,0,1-15.43-10.87c-.2-.17-.39-.32-.59-.46a.15.15,0,0,0-.07-.07l-.52-.43c-1-.82-1.92-1.59-2.71-2.27l-.39-.33-.52-.47c-.18-.15-.35-.31-.51-.46-.74-.66-1.33-1.21-1.76-1.63a24.46,24.46,0,0,0-2.32-2c-25.17-18.73-75.62-24.59-75.62-24.59a395.73,395.73,0,0,1-61.68-16.5C16.53,462.5,19.16,371.87,19.16,371.87-9.47,164,204.89,158.46,204.89,158.46c113.94-9.56,191.25-31.71,191.25-31.71C599.42,23.81,665.44,135,665.44,135c28.66,31.28,111.19,122.49,111.19,122.49,32.14,33,53.21,78.72,53.21,78.72C873.49,416.66,829.84,489.43,829.84,489.43Z" fill="#fff" opacity="0.7"/><path d="M368.78,305.7s-13.84-1.82-17.37-1.74c0,0,.49-5.58-3.75-15.65a96.71,96.71,0,0,0-12.55-21,15.25,15.25,0,0,1-2.55-5.23,20.25,20.25,0,0,1-.83-6.87,2.29,2.29,0,0,1,3.87-1.39l15.47,15a127.77,127.77,0,0,1,14.3,26.51A93.25,93.25,0,0,1,368.78,305.7Z" fill="#f9b499"/><path d="M612.45,536.34s-3.23,37-2.5,64.69l-.53.11-1.71.37-1.67.36-1.62.35-3.67.77-.19,0-2.17.45c-4.93,1-8.95,1.76-11.86,2.29l-.8.15-2.31.41-.7.12-1,.17-.29,0h-.08l-.11,0h0c-2,.24-3.92.49-5.88.71l-.6.07-3.53.41c-2,.23-3.95.43-5.92.64l-3.91.4q-3.89.39-7.73.74l-3.69.33h-.13l-5.29.42c-1.48.13-3,.24-4.41.34-.66.06-1.32.1-2,.14-3.25.23-6.46.44-9.64.61-2,.11-3.93.22-5.86.3s-3.63.18-5.42.25H517l-5.08.19c-3.68.11-7.31.21-10.89.26l-4.58.06q-8.5.07-16.64-.07c-2.13,0-4.23-.09-6.32-.15h-.74c-2.2-.07-4.38-.14-6.53-.23-3.38-.14-6.72-.3-10-.5l-3.28-.2c-2.17-.13-4.31-.29-6.44-.45l-3.18-.25-3.15-.27-3.11-.28c3.57-12.66,8.3-33.82,4.23-46,0,0,1.73,12.17-22.59,20-21.07,6.77-30.4,16.15-32.52,18.54q-13.62-2.82-25.61-6.16l-.65-.18-2.79-.79c-5.89-1.69-11.49-3.46-16.79-5.26l-2.47-.86q-2.5-.89-4.92-1.77-4.86-1.78-9.36-3.62l-2.67-1.1q-4-1.65-7.64-3.3c13.57-8,35.32-21.24,42.87-27.64,0,0,12.17-8.68,20-13.9,0,0,29.54-22.58,32.15-35.61,0,0,13.3-96.65,64.41-109.14l18.11,10.11,6.26-3.81,63.24-19.23a262,262,0,0,1,46.95,23s15.59,6.08,14.72,40.83C622,444.26,624.61,472.05,612.45,536.34Z" fill="#0071f2"/><path d="M548.6,309.61A89.43,89.43,0,0,1,547,326.45c-.3,1.58-.65,3.15-1,4.68-6.24,24.92-23,42.76-42.78,42.76a33.29,33.29,0,0,1-13.53-2.9c-18.46-8.15-31.86-32.55-31.86-61.38,0-35.5,20.32-64.28,45.39-64.28S548.6,274.11,548.6,309.61Z" fill="#f9b499"/><path d="M569.44,296.29c-.77,1.31-1.3,2-1.3,2-10.42,16.5-28.47,9-28.47,9-11.1-4-8.88-17.71-8.88-17.71,4.34-24.32-13.9-23.46-13.9-23.46-14.53,3.11-22.86.34-27.21-2.4a13.13,13.13,0,0,1-4.06-3.68c-7.8,2.61-12.94,2.29-16.29.86a10.49,10.49,0,0,1-6.3-7.81c14.77-2.6,19.11-9.55,19.11-9.55,10.43-13.9,25.2-11.29,25.2-11.29,40-5.22,41.26,13,41.26,13,4.83-2.32,9.74-.69,13.71,1.84a28.15,28.15,0,0,1,12,16.81C578.18,279.08,572.22,291.57,569.44,296.29Z" fill="#2f2e41"/><path d="M489.68,263.77h0a13.13,13.13,0,0,1-4.06-3.68c-7.8,2.61-12.94,2.29-16.29.86.05,0,10.23,0,17.16-6.94C486.49,254,488.53,259.63,489.68,263.77Z" opacity="0.2"/><path d="M569.44,296.29c-.77,1.31-1.3,2-1.3,2-10.42,16.5-28.47,9-28.47,9-11.1-4-8.88-17.71-8.88-17.71,4.34-24.32-13.9-23.46-13.9-23.46a54.49,54.49,0,0,1,15.68-2.4S538.6,300.34,569.44,296.29Z" opacity="0.2"/><path d="M550.39,328.42c-5.6,6.64-5.7,39.39-5.7,39.39-.81.41-1.76.93-2.83,1.55-12.65,7.29-41.47,28-41.47,28a81.15,81.15,0,0,1-9.56,6.08c-6.08-20.85-1.15-32.44-1.15-32.44a33.29,33.29,0,0,0,13.53,2.9c19.74,0,36.54-17.84,42.78-42.76.38-1.53.73-3.1,1-4.68Z" fill="#f9b499"/><path d="M550.39,328.42c-5.6,6.64-5.7,39.39-5.7,39.39-.81.41-1.76.93-2.83,1.55.63-11.49-6.73-6.76-6.73-6.76-30.4,24.32-45.45,8.39-45.45,8.39a33.29,33.29,0,0,0,13.53,2.9c19.74,0,36.54-17.84,42.78-42.76Z" fill="#f7a48b"/><path d="M497.1,399.62l12.84,22.05s29.54-33.88,50.39-39.09l-7.82-17.38S549.9,360,497.1,399.62Z" fill="#2f2e41"/><path d="M487.8,380.39s-10.6,11.52-15.08,12.93l2.47,20.53,15.64-10.42S486.5,390.36,487.8,380.39Z" fill="#2f2e41"/><path d="M609,471.18s-2.6,23.46-20.85,32.15c0,0-59.94,40-88.6,15.63,0,0-5.71-2.14-2.43,4.57,0,0,12,21.49,25.88,24.1,0,0-20.84.37-35.17-19.79,0,0-8-13.05-15.08-6.62,0,0-6.26,4-2.51,29.49a52.08,52.08,0,0,0,4.61,15c1,2.11,2.19,4.69,3.35,7.56a51.43,51.43,0,0,0,36.92,31.31c.59.13,1.19.24,1.8.35a321.65,321.65,0,0,1,32.89,5l-5.29.42c-1.48.13-3,.24-4.41.34-.66.06-1.32.1-2,.14-3.25.23-6.46.44-9.64.61-2,.11-3.93.22-5.86.3s-3.63.18-5.42.25H517l-5.08.19c-3.68.11-7.31.21-10.89.26l-4.58.06q-8.5.07-16.64-.07c-2.13,0-4.23-.09-6.32-.15h-.74c-2.2-.07-4.38-.14-6.53-.23-3.38-.14-6.72-.3-10-.5l-3.28-.2c-2.17-.13-4.31-.29-6.44-.45l-3.18-.25-3.15-.27-3.11-.28c3.57-12.66,8.3-33.82,4.23-46,0,0,1.73,12.17-22.59,20-21.07,6.77-30.4,16.15-32.52,18.54q-13.62-2.82-25.61-6.16c14.06-5.92,40.34-18.15,50.31-30.62,0,0,18.24-15.64,13-23.45,0,0-8-7.24-13.29-10.88,3.23,2.14,18.39,11.38,24.58,1.32,6.95-11.29,18.25-38.22,18.25-38.22s.87,1.74,4.34,1.74c0,0,9.56-12.17,21.72-11.3,0,0,.34-15.83,15.5-20.26a22.72,22.72,0,0,0,4.31-1.84c4.62-2.5,15.62-7.48,26.23-4.83,0,0,2.6,0-1.74-8.68,0,0-11.29-13-13.9-27.8,0,0,17-19.15,28.46-26.94-.46.64-10.88,15.1-1.53,17.95a51.87,51.87,0,0,0,28.49-4,.31.31,0,0,1,.34.52c-5,4.45-20.89,17.68-33.17,17.68,0,0,13,1.54,4.34,6,0,0-18.24,7-6.08,21.81,0,0,8.69,8.69-.87,8.69,0,0-38.21,2.82-42.12,17.47,0,0-1.25,11.61,11.31,19.65,0,0,18.61,1.34,27.55,5.22a25.47,25.47,0,0,0,13.36,2C556.17,505.67,589.7,498.17,609,471.18Z" opacity="0.1"/><path d="M451.74,505.93a346.32,346.32,0,0,1-9.56,54.73c3.52-17.9,6.65-36.67,9.56-54.73Z" opacity="0.1"/><path d="M510.58,425.09A60.87,60.87,0,0,0,565.7,409.2a58,58,0,0,1-5.42,5.21c-13.46,11.41-32.75,15.35-49.7,10.68Z" opacity="0.1"/><path d="M474.76,472.05c-6.08-4.34-13,.87-13,.87-11.4,2.28-15.32-1.42-16.67-4.24a59.62,59.62,0,0,0-6.58-10.4l-5.42-7.08-44.3-67.75c-3.47-6.95-17.37-13.9-17.37-13.9-16.51-6.95-17.38-13.9-17.38-13.9-5.21,0-8.68-6.95-8.68-6.95-4.35-1.74-7.82-7.82-7.82-7.82-4.35-.87-9.56-5.21-9.56-5.21l-.06,0a32.91,32.91,0,0,1-6.76-4.85c-5.07-4.81-5.77-9.5-5.66-12.1a2.55,2.55,0,0,1,3-2.38,35.37,35.37,0,0,1,6.9,2.32c1,.42,1.64.73,1.64.73v-.65l0-5.62c-1.73-13.9,41.7-8.68,41.7-8.68,15.64-3.48,20,19.54,20,19.54l9.56,19.55c6.95,14.77,23.45,28.66,23.45,28.66l48,37.13c-.61,2.37-2,4.57-.25,10.65s2.67,26.71,2.67,26.71c.08,6.73,2.72,17.48,2.72,17.48C476.85,474.44,474.76,472.05,474.76,472.05Z" fill="#f9b499"/><path d="M337.07,340c.18-6.37.56-12.77,1-19.13.65-5.83,6-6.38,10.7-7.44a46.38,46.38,0,0,1,10.88-1.23c-5.46.37-10.75,1.84-16,3.3a6.36,6.36,0,0,0-4.75,5.46l-.23,2.71c-.44,5.45-.95,10.9-1.61,16.33Z" fill="#f7a48b"/><path d="M327.89,335.63a32.91,32.91,0,0,1-6.76-4.85c2.63-3.19,3.91-10,4.26-12.16,1,.42,1.64.73,1.64.73v-.65l0,0Z" fill="#f7a48b"/><path d="M368.78,305.7s-13.84-1.82-17.37-1.74c0,0,.49-5.58-3.75-15.65,0,0,0-.06,0-.1s9.44,6.42,17.67,7.08A93.25,93.25,0,0,1,368.78,305.7Z" fill="#f7a48b"/><path d="M362.27,345.22s4.32-6.08,10.85-5.21c0,0-.43,17.46,5.65,22.63,0,0-13,7.78-25.19-7.86,0,0,10.42,7.82,13.46,0C367,354.78,369.21,348.7,362.27,345.22Z" fill="#f7a48b"/><path d="M367.48,298.32c-25.81,1.89-49.1,3.78-70.11,5.65-44.49,3.95-78.77,7.81-105.13,11.35C116.62,325.48,106,333.06,106,333.06V144.56s44.16-15,97.33-30.27c28.28-8.12,59.11-16.35,87.2-22.44,25.4-5.53,48.57-9.32,65.59-9.75l3.5,66.47Z" fill="#0071f2" opacity="0.39"/><polygon points="164.21 153.25 166.81 223.61 224.25 218.63 219.8 141.95 164.21 153.25" fill="#fff"/><path d="M203.67,177.28c-.2-4.13-3.19-6.08-7.32-5.79l-3.48.26v-1.89a6.51,6.51,0,1,0-6.08,0v2.36l-1.74.14c-3.87.27-6.08,2.09-6.08,6v13.13l25.19-4.35Z" fill="#0071f2" opacity="0.39"/><g opacity="0.39"><path d="M172.89,199.72a.44.44,0,0,1-.43-.37.43.43,0,0,1,.37-.49l40-5.84a.44.44,0,0,1,.49.37.42.42,0,0,1-.37.49l-40,5.84Z" fill="#0071f2"/></g><g opacity="0.39"><path d="M172.89,206.67a.44.44,0,0,1-.43-.37.43.43,0,0,1,.37-.49l40-5.84a.43.43,0,0,1,.49.37.42.42,0,0,1-.37.49l-40,5.83Z" fill="#0071f2"/></g><g opacity="0.39"><path d="M172.89,213.62a.44.44,0,0,1-.43-.37.45.45,0,0,1,.37-.5l40-5.83a.44.44,0,0,1,.49.37.42.42,0,0,1-.37.49l-40,5.83Z" fill="#0071f2"/></g><polygon points="164.72 167.19 142.49 181.04 165.94 242.72 206.76 220.15 166.81 223.61 164.72 167.19" fill="#fff"/><polygon points="160.37 169.9 163.34 227.95 198.27 224.84 206.76 220.15 166.81 223.61 164.72 167.19 160.37 169.9" fill="#0071f2" opacity="0.39"/><ellipse cx="330.99" cy="254.45" rx="22.59" ry="33.44" fill="#0071f2" opacity="0.39"/><polygon points="106 289.97 108.61 146.3 194.22 116.94 106 141.95 106 289.97" fill="#0071f2"/><path d="M350,459.68l-79.83,7.16c-28.76,1.65-54.49,4-76.24,6.4-24.1,2.69-43.31,5.48-56.37,7.58h0c-12.55,2-19.41,3.38-19.41,3.38-3.31-20.2-5.23-43.81-6.35-65.29-1.79-34.87-1.46-64.14-1.46-64.14l50-11.85c25-5.64,47.45-10,67.32-13.39,20.44-3.5,38.15-6,53.14-7.67,41.55-4.76,62.24-3.9,62.24-3.9Z" fill="#0071f2" opacity="0.39"/><polygon points="111.53 412.96 107.74 353.04 153 344.67 110.35 354.78 111.53 412.96" fill="#0071f2"/><path d="M227.69,329.54,137.57,480.82h0c-12.55,2-19.41,3.38-19.41,3.38-3.31-20.2-5.23-43.81-6.35-65.29l48.56-76C185.38,337.29,207.82,332.92,227.69,329.54Z" fill="#fff" opacity="0.22"/><path d="M134.67,370.42c25-4.36,51.47-8,76.62-11,25.58-2.9,51.39-5.5,77.14-6.36q-4.83.46-9.64.86c-47.25,4.38-96.86,10.82-144.12,16.52Z" fill="#fff"/><path d="M141.62,386.05c26.75-3.76,53.65-6.45,80.58-8.59,23.51-1.69,47.28-3,70.88-2.37,3.37.16,6.75.34,10.11.54-3.37,0-6.75,0-10.12-.08-49.56.84-101.94,6.25-151.45,10.5Z" fill="#fff"/><path d="M130.37,421c55.33-7.32,111.41-13.57,167-18.57C242,409.8,186,416,130.37,421Z" fill="#fff"/><path d="M146,439.91C195,432.49,244.8,426.15,294.16,421c-49.06,7.43-98.84,13.76-148.2,18.87Z" fill="#fff"/><path d="M151.17,451.2c29.89-6.07,60.84-11.28,91-15.42,14.79-2,31-4,45.93-4.91,3.07-.19,6.15-.28,9.23-.39l-9.2.85c-45.61,5.22-91.55,13.22-137,19.87Z" fill="#fff"/><path d="M350,459.68l-79.83,7.16c-28.76,1.65-54.49,4-76.24,6.4l86.89-151.37c41.55-4.76,62.24-3.9,62.24-3.9Z" fill="#fff" opacity="0.22"/><polygon points="301.64 464.02 353.58 461.97 346.98 397.85 350.01 459.68 301.64 464.02" fill="#0071f2"/><path d="M676.79,253.14s-51.18,1.45-111,4c-15.15.63-30.85,1.33-46.41,2.09-29.71,1.45-58.93,3.12-82.83,5s-42.7,3.89-51.16,6.05l-2.31-62.34-4.3-116s21.57-6.8,62.35-12.3c19.57-2.65,43.54-5,71.69-6.16.48,0,1,0,1.48-.06l72-1.48,49.7-1,26.64-.54S676,218.37,676.79,253.14Z" fill="#0071f2" opacity="0.39"/><polygon points="502.15 227.52 502.1 226.65 542.98 224 575.37 193.11 589.82 191.9 589.9 192.77 575.74 193.95 543.35 224.85 502.15 227.52" fill="#0071f2"/><path d="M499.52,230.12a3,3,0,1,1,3-3A3,3,0,0,1,499.52,230.12Zm0-5.21a2.18,2.18,0,1,0,2.17,2.17A2.17,2.17,0,0,0,499.52,224.91Z" fill="#0071f2"/><path d="M490.83,102.43a3,3,0,1,1,3-3A3,3,0,0,1,490.83,102.43Zm0-5.21A2.17,2.17,0,1,0,493,99.39,2.17,2.17,0,0,0,490.83,97.22Z" fill="#0071f2"/><path d="M506.47,102.43a3,3,0,1,1,3-3A3,3,0,0,1,506.47,102.43Zm0-5.21a2.17,2.17,0,1,0,2.17,2.17A2.17,2.17,0,0,0,506.47,97.22Z" fill="#0071f2"/><path d="M595.07,98.08a3,3,0,1,1,3-3A3,3,0,0,1,595.07,98.08Zm0-5.21A2.18,2.18,0,1,0,597.24,95,2.18,2.18,0,0,0,595.07,92.87Z" fill="#0071f2"/><path d="M553.38,151.07a3,3,0,1,1,3-3A3,3,0,0,1,553.38,151.07Zm0-5.21a2.17,2.17,0,1,0,2.17,2.17A2.18,2.18,0,0,0,553.38,145.86Z" fill="#0071f2"/><polygon points="519.62 259.47 518.96 258.9 538.4 236.22 573.15 233.61 592.15 212.89 592.79 213.48 573.56 234.45 538.82 237.06 519.62 259.47" fill="#0071f2"/><polygon points="582.71 256.74 582.14 256.08 598.97 241.66 596.38 201.05 597.24 201 599.86 242.04 582.71 256.74" fill="#0071f2"/><polygon points="604.16 255.86 603.49 255.31 619.54 236.04 617.23 199.31 618.09 199.26 620.43 236.33 620.32 236.46 604.16 255.86" fill="#0071f2"/><rect x="629.17" y="207.05" width="0.87" height="47.59" transform="translate(-13.5 40.83) rotate(-3.67)" fill="#0071f2"/><polygon points="589.57 158.72 563.64 135.45 533.25 137.18 533.11 137.07 492.28 101.45 492.85 100.8 533.55 136.3 563.96 134.56 590.15 158.07 589.57 158.72" fill="#0071f2"/><polygon points="589.57 143.47 567.12 123.28 534.11 125.02 533.97 124.9 507.94 101.45 508.52 100.8 534.42 124.14 567.43 122.4 590.15 142.82 589.57 143.47" fill="#0071f2"/><polygon points="592.9 146.31 592.04 116.96 558.3 87.55 558.87 86.9 592.89 116.56 592.9 116.75 593.77 146.28 592.9 146.31" fill="#0071f2"/><polygon points="573.21 165.85 554.83 150.1 555.4 149.44 573.51 164.97 590.71 164.1 590.75 164.97 573.21 165.85" fill="#0071f2"/><rect x="545.95" y="178.48" width="42.22" height="0.87" transform="translate(-10.35 36.92) rotate(-3.69)" fill="#0071f2"/><polygon points="613.75 135.9 612.03 110.02 596.71 97.11 597.27 96.45 612.87 109.6 612.88 109.78 614.62 135.84 613.75 135.9" fill="#0071f2"/><polygon points="623.31 135.03 620.71 94.38 606.81 81.79 606.81 71.42 607.68 71.42 607.68 81.41 621.56 93.97 621.57 94.15 624.17 134.97 623.31 135.03" fill="#0071f2"/><path d="M415.7,158.22,452,116.93a4.71,4.71,0,0,1,6.75-.33l27.5,25.77a4.7,4.7,0,0,1,.37,6.47l-35,41.23a7.33,7.33,0,0,1-10.48.72l-24.84-22.28A7.32,7.32,0,0,1,415.7,158.22Z" fill="#fff"/><polygon points="439.64 143.15 420.47 163.67 443.92 185.39 463.08 164.27 439.64 143.15" fill="#0071f2" opacity="0.39"/><path d="M450.77,159a4.54,4.54,0,0,0-6.46.29l-.39.44a6.52,6.52,0,1,0-6.51,6.58c.2,0,.39,0,.59,0l-.65.71a4.55,4.55,0,0,0,.23,6.34l8.08,7.74,13-14.76Z" fill="#0071f2" opacity="0.39"/><polygon points="441.77 140.81 445.66 144.56 462.16 126.32 458.69 122.84 441.77 140.81" fill="#0071f2" opacity="0.39"/><g opacity="0.39"><path d="M455.8,153.68a.42.42,0,0,1-.29-.12.43.43,0,0,1,0-.61l16.94-18.23a.43.43,0,1,1,.63.59l-16.93,18.23A.45.45,0,0,1,455.8,153.68Z" fill="#0071f2"/></g><g opacity="0.39"><path d="M458.41,156.29a.44.44,0,0,1-.32-.73L475,137.32a.45.45,0,0,1,.62,0,.44.44,0,0,1,0,.61l-16.93,18.24A.47.47,0,0,1,458.41,156.29Z" fill="#0071f2"/></g><g opacity="0.39"><path d="M461,158a.46.46,0,0,1-.29-.11.43.43,0,0,1,0-.62l16.93-18.23a.42.42,0,0,1,.61,0,.43.43,0,0,1,0,.61l-16.94,18.23A.4.4,0,0,1,461,158Z" fill="#0071f2"/></g><g opacity="0.39"><path d="M463.62,160.63a.4.4,0,0,1-.29-.12.43.43,0,0,1,0-.61l16.94-18.23a.43.43,0,1,1,.63.59l-16.93,18.23A.45.45,0,0,1,463.62,160.63Z" fill="#0071f2"/></g><path d="M441.12,79.55,383.07,207.86l-4.3-116S400.34,85.05,441.12,79.55Z" fill="#fff" opacity="0.22"/><path d="M676.79,253.14s-51.18,1.45-111,4L636,70.83l26.64-.54S676,218.37,676.79,253.14Z" fill="#fff" opacity="0.22"/><ellipse cx="546.43" cy="316.56" rx="9.56" ry="13.03" fill="#f9b499"/><path d="M474.09,470.85c3,2.48-.58-11-1.49-15.72a59.58,59.58,0,0,1-1-9.69,179.34,179.34,0,0,0-2.68-26.71c-4.34-20,12.66-12.84,12.66-12.84,13.54,5.4,18.61,5.89,18.61,5.89,13-.86,9.56,9.56,9.56,9.56.87,10.42,13.9,27.8,13.9,27.8,4.34,8.68,1.74,8.68,1.74,8.68a35.76,35.76,0,0,0-26.07,4.45,25.92,25.92,0,0,1-5.45,2.52c-14.2,4.82-14.52,20-14.52,20-11.3-1.73-21.72,11.3-21.72,11.3-30.41-5.22-25.19-46-25.19-46s2.8,3.51,6,7.63a75.6,75.6,0,0,1,6.23,9.84c1.53,2.82,5.63,6.52,16.46,4.24C461.06,471.72,468.88,466.51,474.09,470.85Z" fill="#0071f2"/><path d="M474.33,471.18c2.8,2.19-.36-9.86-.49-10.88a72.7,72.7,0,0,1-2-12.08,183.9,183.9,0,0,0-3.16-30.44c-1.41-6.67-.15-13.94,8.33-13.06a20.61,20.61,0,0,1,6,1.58c3.8,1.46,7.65,2.83,11.56,4a51.83,51.83,0,0,0,5.79,1.35c4.37-.34,9.76.67,10.51,5.83a10.71,10.71,0,0,1-.32,4.43l0-.25c.61,5.06,3.05,9.83,5.47,14.3a120,120,0,0,0,8.47,13.14c1,2.12,4.45,8.4,1.48,9.83a1.2,1.2,0,0,1-.57.06c-10.26-2-19,.28-27.81,5.65-3.35,1.48-6.9,2.42-9.72,4.85a22.57,22.57,0,0,0-7.59,15.65l-.05.84-.83-.11c-8.4-1-15.84,5-21.12,10.93l-.24.28-.34-.06c-16.3-2.78-23.83-16.79-25.28-32.1a68.48,68.48,0,0,1,.06-15l.27.35,6.05,7.84a70.65,70.65,0,0,1,5.34,8.34,9.94,9.94,0,0,0,7.33,5.93,24.72,24.72,0,0,0,9.8-.32c3.72-2.3,9.24-4,13-.83Zm0,0c-3.83-3.1-9.24-1.44-13,.91a24.54,24.54,0,0,1-9.84.37,10.1,10.1,0,0,1-7.47-6,69.47,69.47,0,0,0-5.37-8.29l-6.13-7.76.32-.09a68.43,68.43,0,0,0,.2,14.45c1.63,14.81,9,28.53,24.91,31l-.58.22c5.53-6.41,13.31-12.73,22.31-11.66l-.87.74a25.17,25.17,0,0,1,1.6-7.48A21.49,21.49,0,0,1,490,466c2.13-1.28,4.63-1.87,6.84-3,4.29-2.48,8.83-4.91,13.79-5.77a38.41,38.41,0,0,1,15.07.06h-.16c-.17,0-.11,0-.15,0h0c.42-1.72-.68-3.8-1.3-5.43-.3-.72-.66-1.42-1-2.12l.08.12c-1.57-2.14-3-4.31-4.45-6.53a82.44,82.44,0,0,1-7.41-14,27.52,27.52,0,0,1-2.05-7.86c.75-2.39.7-5.5-1.33-7.25s-5-1.81-7.56-1.73a70.22,70.22,0,0,1-12-3.43c-3.83-1.25-7.48-3.38-11.53-3.82-4.48-.6-7.83,1.69-8.21,6.3-.43,4,.87,8,1.32,12.1s1,8.11,1.33,12.19.42,8.17.6,12.25a72.73,72.73,0,0,0,1.94,12.08c.13,1.08,3.23,13,.42,10.89Z" fill="#0071f2"/><path d="M474.33,471.18c2.8,2.19-.36-9.86-.49-10.88a72.7,72.7,0,0,1-2-12.08,183.9,183.9,0,0,0-3.16-30.44c-1.41-6.67-.15-13.94,8.33-13.06a20.61,20.61,0,0,1,6,1.58c3.8,1.46,7.65,2.83,11.56,4a51.83,51.83,0,0,0,5.79,1.35c4.37-.34,9.76.67,10.51,5.83a10.71,10.71,0,0,1-.32,4.43l0-.25c.61,5.06,3.05,9.83,5.47,14.3a120,120,0,0,0,8.47,13.14c1,2.12,4.45,8.4,1.48,9.83a1.2,1.2,0,0,1-.57.06c-10.26-2-19,.28-27.81,5.65-3.35,1.48-6.9,2.42-9.72,4.85a22.57,22.57,0,0,0-7.59,15.65l-.05.84-.83-.11c-8.4-1-15.84,5-21.12,10.93l-.24.28-.34-.06c-16.3-2.78-23.83-16.79-25.28-32.1a68.48,68.48,0,0,1,.06-15l.27.35,6.05,7.84a70.65,70.65,0,0,1,5.34,8.34,9.94,9.94,0,0,0,7.33,5.93,24.72,24.72,0,0,0,9.8-.32c3.72-2.3,9.24-4,13-.83Zm0,0c-3.83-3.1-9.24-1.44-13,.91a24.54,24.54,0,0,1-9.84.37,10.1,10.1,0,0,1-7.47-6,69.47,69.47,0,0,0-5.37-8.29l-6.13-7.76.32-.09a68.43,68.43,0,0,0,.2,14.45c1.63,14.81,9,28.53,24.91,31l-.58.22c5.53-6.41,13.31-12.73,22.31-11.66l-.87.74a25.17,25.17,0,0,1,1.6-7.48A21.49,21.49,0,0,1,490,466c2.13-1.28,4.63-1.87,6.84-3,4.29-2.48,8.83-4.91,13.79-5.77a38.41,38.41,0,0,1,15.07.06h-.16c-.17,0-.11,0-.15,0h0c.42-1.72-.68-3.8-1.3-5.43-.3-.72-.66-1.42-1-2.12l.08.12c-1.57-2.14-3-4.31-4.45-6.53a82.44,82.44,0,0,1-7.41-14,27.52,27.52,0,0,1-2.05-7.86c.75-2.39.7-5.5-1.33-7.25s-5-1.81-7.56-1.73a70.22,70.22,0,0,1-12-3.43c-3.83-1.25-7.48-3.38-11.53-3.82-4.48-.6-7.83,1.69-8.21,6.3-.43,4,.87,8,1.32,12.1s1,8.11,1.33,12.19.42,8.17.6,12.25a72.73,72.73,0,0,0,1.94,12.08c.13,1.08,3.23,13,.42,10.89Z" opacity="0.2"/><path d="M212.85,163.67c-17.27,0-31.27,14.58-31.27,32.58s14,32.57,31.27,32.57,31.27-14.58,31.27-32.57S230.12,163.67,212.85,163.67Zm0,57.91c-13.43,0-24.32-11.34-24.32-25.33s10.89-25.34,24.32-25.34,24.32,11.34,24.32,25.34S226.28,221.58,212.85,221.58Z" fill="#0071f2"/><path d="M277.08,240.29,255,222.17a7.49,7.49,0,0,0-8.37-.76l-9.88-9-6.51,6,12.53,9.4a7.48,7.48,0,0,0,2.68,5.89L267.32,252a7.5,7.5,0,0,0,10.31-.66l.2-.22A7.49,7.49,0,0,0,277.08,240.29Z" fill="#0071f2"/><path d="M290.53,91.85,192.24,315.32C116.62,325.48,106,333.06,106,333.06V312.74l97.33-198.45C231.61,106.17,262.44,97.94,290.53,91.85Z" fill="#fff" opacity="0.22"/><ellipse cx="330.99" cy="254.45" rx="13.2" ry="19.55" fill="#0071f2" opacity="0.46"/><ellipse cx="330.99" cy="254.45" rx="7.82" ry="11.58" fill="#0071f2" opacity="0.53"/><path d="M367.48,298.32c-25.81,1.89-49.1,3.78-70.11,5.65l62.25-155.4Z" fill="#fff" opacity="0.22"/><polygon points="317.79 302.57 364.49 295.87 363.88 229.72 368.35 300.49 317.79 302.57" fill="#0071f2"/><polygon points="381.22 158 376.16 88.96 438.82 79.86 378.77 91.85 381.22 158" fill="#0071f2"/><polygon points="641.36 254.45 676.79 253.13 674.25 209.89 680.2 256.62 641.36 254.45" fill="#0071f2"/><path d="M512.89,187.92v0a1.79,1.79,0,0,1-1.79,1.79H477a5.62,5.62,0,0,1-5.61-5.22L469,151.22a3,3,0,0,1,2.66-3.17l.32,0H496.1a1.43,1.43,0,0,0,1.42-1.53l-.61-8.89s0-4.82-4.34-5l-12.68.55a3.08,3.08,0,0,0-3,3.08v6.92h-4.19V135a7.83,7.83,0,0,1,7.82-7.83h13.18a7.83,7.83,0,0,1,7.83,7.51l.5,12a1.18,1.18,0,0,0,1.31,1.11,7.94,7.94,0,0,1,6.13,1.88,9,9,0,0,1,3.06,6.8Z" fill="#0071f2"/><path d="M506.47,194.94l-31.28.87c-9.55-.87-9-6.08-9-6.08L463.9,155c-.77-6.17,6.21-6.86,7.79-6.93a3,3,0,0,0-2.66,3.17l2.32,33.29a5.62,5.62,0,0,0,5.61,5.22H511.1a1.79,1.79,0,0,0,1.79-1.79C515,194.8,506.47,194.94,506.47,194.94Z" fill="#0071f2"/><path d="M506.47,194.94l-31.28.87c-9.55-.87-9-6.08-9-6.08L463.9,155c-.77-6.17,6.21-6.86,7.79-6.93a3,3,0,0,0-2.66,3.17l2.32,33.29a5.62,5.62,0,0,0,5.61,5.22H511.1a1.79,1.79,0,0,0,1.79-1.79C515,194.8,506.47,194.94,506.47,194.94Z" opacity="0.1"/><path d="M491,162.09a6.59,6.59,0,0,0-7.63,4.31,6.5,6.5,0,0,0,3.51,8V180a2.86,2.86,0,0,0,2.86,2.86h0a2.86,2.86,0,0,0,2.86-2.86V174.2a6.51,6.51,0,0,0-1.6-12.11Z" opacity="0.1"/><rect x="502.99" y="151.51" width="5.21" height="13.03" rx="2.43" transform="translate(-8.49 30.31) rotate(-3.41)" opacity="0.1"/><path d="M517.11,169.1a6.51,6.51,0,0,0-9.22,0l-6,6a6.51,6.51,0,0,0-1,7.87l-2.1,2.23a6.52,6.52,0,0,0-7.39,1.28l-6,6a6.52,6.52,0,0,0-.69,8.39l-2.2,2.33a6.53,6.53,0,0,0-6.76,1.53l-6,6a6.52,6.52,0,1,0,9.21,9.22l6-6a6.51,6.51,0,0,0,.48-8.67l2-2.2a6.51,6.51,0,0,0,7.16-1.39l6-6a6.52,6.52,0,0,0,.87-8.15l1.94-2.12a6.51,6.51,0,0,0,7.71-1.12l6-6A6.52,6.52,0,0,0,517.11,169.1Zm-35.62,43.53-3.81,3.81a3.14,3.14,0,0,1-4.44-4.44l3.81-3.81a3.14,3.14,0,0,1,4.44,4.44Zm15.64-18.24-3.81,3.81a3.14,3.14,0,0,1-4.44-4.44l3.81-3.81a3.14,3.14,0,0,1,4.44,4.44ZM513.63,177l-3.81,3.81a3.14,3.14,0,0,1-4.44-4.45l3.81-3.81a3.14,3.14,0,0,1,4.44,4.45Z" fill="#fff"/><path d="M586.32,71.85c-14.13,38.26-56.29,157.23-67,187.34-29.71,1.45-58.93,3.12-82.83,5L512.81,73.39c.48,0,1,0,1.48-.06Z" fill="#fff" opacity="0.22"/></svg>