<svg xmlns="http://www.w3.org/2000/svg" xmlns:xlink="http://www.w3.org/1999/xlink" width="865.76" height="682.89" viewBox="0 0 865.76 682.89"><defs><clipPath id="a"><path d="M798.63,188.92S762,104.26,635.27,83.76a343.48,343.48,0,0,0-39.37-4A430.53,430.53,0,0,0,540.12,81q-11.39,1-23.41,2.52s-25.64,4.77-55.49,13.41c-21.42,6.18-45,14.36-62.85,24.18,0,0-32.9,14-64.95,9.64-20.87-2.82-42-3.52-62.88-.93-26,3.21-60.11,9.58-94.91,22.23C58.45,194.61-2.85,321.94,35.42,439.55c.88,2.66,1.79,5.33,2.76,8,3.16,8.61,6.77,17.38,10.92,26.13C84,547.3,156.45,620.07,307,597.31c0,0,65.88-5.7,110,.62,0,0,267.73,43.82,385.78-113.11C802.8,484.82,893.06,369.36,798.63,188.92Z" fill="none"/></clipPath></defs><path d="M798.63,188.92S762,104.26,635.27,83.76a341.32,341.32,0,0,0-39.37-4A428.67,428.67,0,0,0,540.12,81q-11.39,1-23.41,2.52s-25.64,4.77-55.49,13.41c-21.42,6.18-45,14.36-62.85,24.18,0,0-32.9,14-64.95,9.64-20.87-2.82-42-3.51-62.88-.93-26,3.21-60.11,9.58-94.91,22.23C58.45,194.61-2.85,322,35.42,439.55c.88,2.66,1.79,5.33,2.76,8,3.16,8.62,6.77,17.38,10.92,26.13C84,547.3,156.45,620.07,307,597.31c0,0,65.88-5.7,110,.62,0,0,267.73,43.82,385.78-113.11C802.8,484.82,893.06,369.36,798.63,188.92Z" fill="#0070f0"/><path d="M802.79,484.82c-.7.93-1.4,1.86-2.11,2.77q-6.2,8-12.9,15.29c-30.61,33.36-68.65,56-108.59,71.31q-9.66,3.69-19.44,6.81c-95.29,30.51-196.25,22.58-230.53,18.57-7.84-.92-12.19-1.64-12.19-1.64-2.36-.33-4.79-.64-7.26-.91-43.74-4.81-102.76.29-102.76.29-49,7.41-89.75,4.69-123.6-4.87a212.2,212.2,0,0,1-22.22-7.63c-44.1-18-74.74-48.48-96-81.93q-4.81-7.56-9-15.29-3.77-6.93-7.07-13.92c-4.15-8.75-7.76-17.51-10.92-26.12q-1.44-4-2.76-8a229.6,229.6,0,0,1,4.85-156.1Q44.2,273.52,49,264a229.09,229.09,0,0,1,112.15-106.2q7.06-3.13,14.44-5.81,3.9-1.41,7.78-2.72a445.43,445.43,0,0,1,87.13-19.51c20.9-2.59,42-1.89,62.88.93,32.06,4.33,64.95-9.64,64.95-9.64,3.59-2,7.42-3.88,11.4-5.72,6.16-2.84,12.72-5.51,19.45-8,10.57-3.94,21.54-7.43,32-10.45,29.85-8.63,55.49-13.42,55.49-13.42q12-1.54,23.42-2.5a430.44,430.44,0,0,1,55.77-1.22,346,346,0,0,1,39.37,4q12.86,2.07,24.48,5,10.17,2.52,19.44,5.58c91.47,30,119.44,94.58,119.44,94.58A401.23,401.23,0,0,1,829.14,264q2.85,9.92,5,19.44C862.32,408.69,802.79,484.82,802.79,484.82Z" fill="#fff" opacity="0.7" style="isolation:isolate"/><g opacity="0.7" style="isolation:isolate"><path d="M834.13,283.45H40.27Q44.2,273.52,49,264h780.1Q832,273.93,834.13,283.45Z" fill="#fff"/><path d="M800.68,487.59q-6.2,8-12.9,15.29H65.16q-4.81-7.56-9-15.29Z" fill="#fff"/><path d="M183.41,149.28V592.44a212.2,212.2,0,0,1-22.22-7.63v-427q7.06-3.13,14.44-5.81Q179.53,150.59,183.41,149.28Z" fill="#fff"/><path d="M429.22,107.33V599.57c-7.84-.92-12.19-1.64-12.19-1.64-2.36-.33-4.79-.64-7.26-.91V115.34C415.93,112.5,422.49,109.83,429.22,107.33Z" fill="#fff"/><path d="M679.19,94.34V574.19q-9.66,3.69-19.44,6.81V88.76Q669.92,91.28,679.19,94.34Z" fill="#fff"/></g><path d="M540.42,80.3,474,264.56h-44.5v-74.1l32-94.23C491.37,87.59,517,82.82,517,82.82Q529,81.26,540.42,80.3Z" fill="#fff" opacity="0.5" style="isolation:isolate"/><path d="M635.27,83.76C611.08,148.77,568.21,264,568.5,264H528.81L595.9,79.75A341.32,341.32,0,0,1,635.27,83.76Z" fill="#fff" opacity="0.5" style="isolation:isolate"/><path d="M121.39,283.45,49.1,473.67c-4.15-8.75-7.76-17.51-10.92-26.13-1-2.66-1.88-5.33-2.76-8l59-156.1Z" fill="#fff" opacity="0.5" style="isolation:isolate"/><polygon points="141.78 283.45 67.54 487.6 82.22 487.6 155.65 283.45 141.78 283.45" fill="#fff" opacity="0.5" style="isolation:isolate"/><path d="M201.1,528.16s1.54-6.36,15.46-10.58a52.6,52.6,0,0,0,9.84-4.18c8-4.36,21-13,28.12-25.8,0,0,1.1-5.56,19.16-8.34,0,0-9.57,21.27-10.1,32.17a26.73,26.73,0,0,1-2.05,9.35c-3.56,8.25-9.68,23.74-8.68,30.7,0,0,1.38,18-26.39,26.39,0,0-32.79,8.52-31.67,17.45L175.53,590Z" fill="#0070f0"/><path d="M201.1,528.16s1.54-6.36,15.46-10.58a52.6,52.6,0,0,0,9.84-4.18c8-4.36,21-13,28.12-25.8,0,0,1.1-5.56,19.16-8.34,0,0-9.57,21.27-10.1,32.17a26.73,26.73,0,0,1-2.05,9.35c-3.56,8.25-9.68,23.74-8.68,30.7,0,0,1.38,18-26.39,26.39,0,0-32.79,8.52-31.67,17.45L175.53,590Z" opacity="0.2" style="isolation:isolate"/><path d="M214.11,450.1s-11.26,15.28-5.7,31.94c0,0,7.05,11.76-2.64,25.54a27.15,27.15,0,0,0-5.28,15.86,18.1,18.1,0,0,0,1.94,8.25s15.22,41.36-26.9,58.34l-19.88-7.58s0-7.36-8.35-14.31-13.86-15.35,8.35-40.31a36.45,36.45,0,0,0,3.11-3.67h0c3-4.06,7-10.86,5.2-17.11,0,0-5.48-10.71,4-19.07a16.65,16.65,0,0,1,6.56-3.32c3.27-.9,8.84-4.21,8.84-16.2,0,0-8.34-30.85,13.89-47.51,0,0,18-12.5,23.6-26.39C220.9,394.55,228.15,430.66,214.11,450.1Z" fill="#0070f0"/><path d="M158.76,524.15h0a36.45,36.45,0,0,1-3.11,3.67c-22.21,25-16.68,33.37-8.35,40.31s8.35,14.31,8.35,14.31-61.12-29.58-51.4-54.58a80.41,80.41,0,0,0,2.3-12.08,45.24,45.24,0,0,0-7.47-30.1C93.46,477.16,88,460,103.21,431.94c0,0,2,22.47,18.18,32.12,0,0,12.92,12.09,13.86,28.23,0,0-1.6,5.76,12.17,13.74C147.42,506,159.08,512.12,158.76,524.15Z" fill="#0070f0"/><path d="M158.76,524.15h0a36.45,36.45,0,0,1-3.11,3.67c-22.21,25-16.68,33.37-8.35,40.31s8.35,14.31,8.35,14.31-61.12-29.58-51.4-54.58a80.41,80.41,0,0,0,2.3-12.08,45.24,45.24,0,0,0-7.47-30.1C93.46,477.16,88,460,103.21,431.94c0,0,2,22.47,18.18,32.12,0,0,12.92,12.09,13.86,28.23,0,0-1.6,5.76,12.17,13.74C147.42,506,159.08,512.12,158.76,524.15Z" fill="#0070f0"/><path d="M158.76,524.15h0a36.45,36.45,0,0,1-3.11,3.67c-22.21,25-16.68,33.37-8.35,40.31s8.35,14.31,8.35,14.31-61.12-29.58-51.4-54.58a80.41,80.41,0,0,0,2.3-12.08,45.24,45.24,0,0,0-7.47-30.1C93.46,477.16,88,460,103.21,431.94c0,0,2,22.47,18.18,32.12,0,0,12.92,12.09,13.86,28.23,0,0-1.6,5.76,12.17,13.74C147.42,506,159.08,512.12,158.76,524.15Z" opacity="0.2" style="isolation:isolate"/><path d="M199.71,570.3c15.21-2.58,26.54-14.89,29-29.93.67-8.78,4.23-18.67,13-22.22-6.92,3.25-10.6,10.62-11.72,17.88-1.18,17.3-12.59,32-30.31,34.27Z" fill="#fff"/><path d="M115.15,492.29c7.35,1.46,11.9,8.53,14,15.26a56.47,56.47,0,0,1,2,13.86L131,526.5a30,30,0,0,0,3.3,22.16,34.31,34.31,0,0,0,5.68,7,29.17,29.17,0,0,1-9.74-29.27,80.41,80.41,0,0,0-.55-12.47,50.13,50.13,0,0,0-1.24-6.16c-1.92-6.68-6.18-13.64-13.32-15.45Z" fill="#fff"/><path d="M167.41,586.94c9.77-8.64,13.53-26.39,14.84-38.92.3-2.4.4-5.52.6-7.95.19-4.15.05-9.2.57-13.32a94,94,0,0,1,4.76-20.8c2.65-6.58,5-13.27,5.95-20.32a56,56,0,0,0,.42-13.19c-3.24-18.58.54-32.72,12.47-47.34-11.6,14.82-15.15,28.82-11.79,47.27a57.42,57.42,0,0,1-.37,13.36c-.92,7.09-3.28,13.89-5.92,20.48a93,93,0,0,0-4.79,20.63c-.54,4.11-.41,9.13-.62,13.27-.13,1.9-.35,4.75-.5,6.65-.13,1-.71,5.53-.85,6.62l-1,5.26a70.54,70.54,0,0,1-7.17,20,29.41,29.41,0,0,1-6.64,8.27Z" fill="#fff"/><g clip-path="url(#a)"><path d="M641.69,241.61c-2.89,3.82-7.68,6-12.37,6.41q-1,.07-2,.06a31.29,31.29,0,0,0,14.41-6.47Z" opacity="0.1" style="isolation:isolate"/><path d="M641.75,252.9c-3.13,2.76-7.57,3.73-11.65,3.62,4-1,7.95-1.83,11.65-3.62Z" opacity="0.1" style="isolation:isolate"/><polygon points="398.37 445.24 419.5 618.14 794.36 618.14 828.49 445.24 398.37 445.24" fill="#b3b3b3"/><polygon points="483.28 618.14 565.02 450.1 639.62 450.1 546.77 618.14 483.28 618.14" fill="#fff" opacity="0.15" style="isolation:isolate"/><polygon points="680.09 450.1 593.59 618.14 668.98 618.14 753.1 450.1 680.09 450.1" fill="#fff" opacity="0.15" style="isolation:isolate"/><rect x="387.56" y="440.38" width="451.35" height="9.72" fill="#ccc"/><rect x="634.75" y="293.17" width="163.87" height="113.88" fill="#2f2e41"/><circle cx="716.69" cy="341.78" r="8.33" opacity="0.2" style="isolation:isolate"/><path d="M700,362.61h37s26.93,45.83-.85,70.83H698.31S726.41,407.05,700,362.61Z" fill="#2f2e41"/><path d="M700,362.61h37s26.93,45.83-.85,70.83H698.31S726.41,407.05,700,362.61Z" opacity="0.2" style="isolation:isolate"/><path d="M700,362.61h-5.47s27.63,38.88-1.5,70.83h5.25S726.41,409.83,700,362.61Z" fill="#2f2e41"/><path d="M700,362.61h-5.47s27.63,38.88-1.5,70.83h5.25S726.41,409.83,700,362.61Z" opacity="0.3" style="isolation:isolate"/><rect x="676.42" y="433.44" width="80.55" height="6.94" fill="#2f2e41"/><path d="M478.51,489.4c-.86,1.3,2.41,1.15,2.41,1.15l6.1.07c5.18-22.66-6.34-37.21-6.34-37.21l-7,.92s8.26,2.13,8.76,19.76C482.45,474.09,483,482.62,478.51,489.4Z" fill="#2f2e41"/><path d="M546.35,611.31c-.29-10,0-64.66,0-64.66l56.59-16.4,57.24,20s5,0,8.68,55.55" fill="#2f2e41"/><path d="M546.35,611.31c-.29-10,0-64.66,0-64.66l56.59-16.4,57.24,20s5,0,8.68,55.55" opacity="0.2" style="isolation:isolate"/><polygon points="579.05 328.13 561.92 361.27 576.48 343.58 589.32 330.43 584.42 325.82 579.69 325.82 579.05 328.13" fill="#0070f0"/><polygon points="579.05 328.13 561.92 361.27 576.48 343.58 589.32 330.43 584.42 325.82 579.69 325.82 579.05 328.13" opacity="0.2" style="isolation:isolate"/><path d="M658.12,246.2s17.29,1.78,9.2,16.63c0,0,5.24,1.52,0,10.41,0,0,3,1.78-5.9,5.7,0,0-7.52,3.49-11.18,0,0,0-5.24.57-4.45-2.57,0,0-4,1.29-4-2C641.82,274.35,652.9,265,658.12,246.2Z" fill="#2f2e41"/><path d="M658.12,246.2s17.29,1.78,9.2,16.63c0,0,5.24,1.52,0,10.41,0,0,3,1.78-5.9,5.7,0,0-7.52,3.49-11.18,0,0,0-5.24.57-4.45-2.57,0,0-4,1.29-4-2C641.82,274.35,652.9,265,658.12,246.2Z" opacity="0.1" style="isolation:isolate"/><path d="M479.79,483.3c-3.92,5-9.4,1.66-9.4,1.66a12.16,12.16,0,0,1,.57,5.59c-1,4.66-6.91,2.43-6.91,2.43-1.34,8-8.62,5.29-8.62,5.29-1.66,5-6.65,1.65-6.65,1.65l-23.25-9.13c10-17.45,4-36.56,4-36.56l3.15-.35a20.77,20.77,0,0,0,7.68-2.41c15.89-8.75,21.94-1.41,21.94-1.41.23.19.47.38.69.58-11.83-2.58-11.87,5.54-11.87,5.54-.74,3.7-2.22,4.44-2.22,4.44-2.22,2.23-.74,3.71-.74,3.71,6.23,4.36,9.65-1.87,10.58-4a.2.2,0,0,1,.37,0c1.07,2.75,9.64,6.29,9.64,6.29C485.36,480,479.79,483.3,479.79,483.3Z" fill="#f9b499"/><path d="M450.29,495a12.39,12.39,0,0,1,5.14,3.26,12.35,12.35,0,0,1-5.14-3.26Z" fill="#f7a48b"/><path d="M459,488.12a16.22,16.22,0,0,1,5.07,4.86,16.45,16.45,0,0,1-5.07-4.86Z" fill="#f7a48b"/><path d="M464.05,477.24a32.66,32.66,0,0,1,6.34,7.72,32.75,32.75,0,0,1-6.34-7.72Z" fill="#f7a48b"/><path d="M478.51,489.4,471,490.55a12.16,12.16,0,0,0-.57-5.59s5.48,3.33,9.4-1.66c0,0,5.57-3.32-11.06-16.62,0,0-8.57-3.54-9.64-6.29a.2.2,0,0,0-.37,0c-.92,2.08-4.34,8.32-10.58,4,0,0-1.48-1.48.74-3.71,0,0,1.48-.74,2.22-4.44,0,0,0-8.12,11.87-5.54h0a28.67,28.67,0,0,1,10.56,2.94,13.49,13.49,0,0,1,6.74,8C482.31,467.89,484.63,479.62,478.51,489.4Z" fill="#f7a48b"/><path d="M424.07,492.84l-4.45-.74c13.64-20.28,3.91-41.54,3.51-42.32l6.12,1.59S437.37,477.56,424.07,492.84Z" fill="#2f2e41"/><polyline points="367.31 616.67 369.69 552.94 372.5 550.4 367.78 508.4 348.48 569 348.48 625.11" fill="#2f2e41"/><polyline points="367.31 616.67 369.69 552.94 372.5 550.4 367.78 508.4 348.48 569 348.48 625.11" opacity="0.2" style="isolation:isolate"/><path d="M367.31,508.24s-5,34.92,5,49.88c0,0,5,1.66,6.65-6.65,0,0-7.9-48.57-6.44-61.69l-6.16-1.66Z" fill="#0070f0"/><path d="M321.7,306.41l.59-7.68a3,3,0,0,0-1.2-2.64l-5.32-4-1.32-7.38c6.94,3,10.08,7.13,11.48,10a12,12,0,0,1,1.12,4.53c.3,4.07,3,8.16,4.48,10.05a.33.33,0,0,1-.39.5C327.51,308.24,321.7,306.41,321.7,306.41Z" fill="#0070f0"/><path d="M321.7,306.41l.59-7.68a3,3,0,0,0-1.2-2.64l-5.32-4-1.32-7.38c6.94,3,10.08,7.13,11.48,10a12,12,0,0,1,1.12,4.53c.3,4.07,3,8.16,4.48,10.05a.33.33,0,0,1-.39.5C327.51,308.24,321.7,306.41,321.7,306.41Z" fill="#fff" opacity="0.4" style="isolation:isolate"/><path d="M347.36,248.87s-2.08.72-1,5.34c0,0,.78,3.5-1.2,4.42a.83.83,0,0,0-.37,1.18,4.33,4.33,0,0,1-.73,5.69s-3.33,1.66-1.66,6.65c0,0,3.33,15-23.28,5,0,0-5,5-3.32,15l-13.31-10s-5-5-15-8.31c0,0-11.63-3.33-13.3-6.65l.45-3.61.87-6.85v-.3c2.45,1,5.34,0,7.5-7.35a14.6,14.6,0,0,1-3.84-10.16c0-7.35,4.84-13.29,10.81-13.29,19.42-21.44,4.85-33.16-1.55-36.9a.68.68,0,0,1,.39-1.26c4.4.2,12.74.89,18.62,3.23,0,0,9.05,4.53,15,4.25l.44,0,.61-.08a5.58,5.58,0,0,1,4.58,1.43l0,0,.69.62.46.41.74.65,1,.86c.31.24.62.5.93.75l.66.52q.76.6,1.53,1.14l.71.51c.25.17.5.34.76.49s.48.32.72.46.72.42,1.06.59a12,12,0,0,0,1.17.54,4.68,4.68,0,0,0,.48.18v0s0,0,0,.07c.35.51,2,3.15,3.28,9A81.44,81.44,0,0,1,344,230.58s1.67,5,8.32,10C352.35,240.56,357.33,243.88,347.36,248.87Z" fill="#f9b499"/><path d="M325.74,194s.94.94,2.37,2.24a5.58,5.58,0,0,0-4.58-1.43A5.66,5.66,0,0,0,325.74,194Z" fill="#f9b499"/><path d="M365.65,553.13c1.66,18.29-36.58,18.29-36.58,18.29-66.51,5-93.11-16.63-93.11-16.63-3.32-49.87,6.65-88.12,6.65-88.12l-5-28.26c-6.65-38.24-10-79.81-10-79.81-1.66-39.9,18.29-56.53,18.29-56.53,5-6.65,16.62-23.27,16.62-23.27,3.33-11.64,6.65-6.65,6.65-6.65a34.92,34.92,0,0,1-2.06,4.82,2.69,2.69,0,0,0,.65,3.39c7.93,6.47,38.56,31.14,53,38.34,39.9,31.59,41.56,84.79,41.56,84.79l5,104.75A139.08,139.08,0,0,0,365.65,553.13Z" fill="#0070f0"/><path d="M421,491.68a50.86,50.86,0,0,1-8.83,9.91L352.35,485s-48.22-6.65-99.76-83.13c-9.08-13.47-15-34.91-15-34.91-3-12.47-3-22.1-1.53-29.46,3.13-15.72,20.19-24.4,35-18.29,12.71,5.22,27.67,17.49,33,46.08,0,0,9.56,8.7,9.78,18.48l25.27,34.36a9.75,9.75,0,0,0,6.35,3.89c3.31.5,8,1.73,10.64,4.73a9.41,9.41,0,0,0,4.21,2.72l63.46,20.62,0,0C424.25,450.85,434.66,471.4,421,491.68Z" fill="#0070f0"/><path d="M421,491.68a50.86,50.86,0,0,1-8.83,9.91L352.35,485s-48.22-6.65-99.76-83.13c-9.08-13.47-15-34.91-15-34.91-3-12.47-3-22.1-1.53-29.46,3.13-15.72,20.19-24.4,35-18.29,12.71,5.22,27.67,17.49,33,46.08,0,0,9.56,8.7,9.78,18.48l25.27,34.36a9.75,9.75,0,0,0,6.35,3.89c3.31.5,8,1.73,10.64,4.73a9.41,9.41,0,0,0,4.21,2.72l63.46,20.62,0,0C424.25,450.85,434.66,471.4,421,491.68Z" opacity="0.2" style="isolation:isolate"/><path d="M320.76,318.7l.94-12.29,9.43,3.39s12.6,27.58,13.59,36.53C344.72,346.33,335.72,330.34,320.76,318.7Z" fill="#2f2e41"/><path d="M331.13,309.8s16.13,21.88,19.5,47.81l-5.91-11.28A297.89,297.89,0,0,0,331.13,309.8Z" fill="#0070f0"/><path d="M331.13,309.8s16.13,21.88,19.5,47.81l-5.91-11.28A297.89,297.89,0,0,0,331.13,309.8Z" opacity="0.2" style="isolation:isolate"/><path d="M348.48,618.7V569c-72,10.89-107-10.74-107-10.74s2.81,28.12,6.14,48.08" fill="#2f2e41"/><path d="M444.52,497.56l-.73.7c-5,3.33-4.71-1.63-4.71-1.63-4.7,1.7-3.6-1.69-3.6-1.69-5,1.66-5-1.66-5-1.66-2.49.83-3.73.21-4.35-.62a2.57,2.57,0,0,1,0-2.87c1-1.68,3.3-4.74,5.28-3.47,0,0,3.24.92,1.35,3.71,0,.05,0,.13.08.1,1-.52,4.95-2.27,4.95,1.6,0,0,3.7-2.22,3.7,2.22,0,0,4-1.13,4,1.56A2.92,2.92,0,0,1,444.52,497.56Z" fill="#f7a48b"/><path d="M432.74,490a5.32,5.32,0,0,1-2.25,3.25,5.33,5.33,0,0,1,2.25-3.25Z" fill="#f48f78"/><path d="M437.77,491.73a5.32,5.32,0,0,1-2.29,3.21,5.28,5.28,0,0,1,2.29-3.21Z" fill="#f48f78"/><path d="M441.47,494a4.38,4.38,0,0,1-2.39,2.68,4.43,4.43,0,0,1,2.39-2.68Z" fill="#f48f78"/><path d="M548.13,414.7c-6.67,25.93-60.78,35.43-60.78,35.43-8.19.63-6.67,3.28-6.67,3.28s11,14,4.41,43.22c0,0,52-9.57,79.7-27.49" fill="#0070f0"/><path d="M548.13,414.7c-6.67,25.93-60.78,35.43-60.78,35.43-8.19.63-6.67,3.28-6.67,3.28s11,14,4.41,43.22c0,0,52-9.57,79.7-27.49" opacity="0.2" style="isolation:isolate"/><path d="M598.49,322.12s-54.07,45.18-52.58,80l3.7,23s2.22,33.33,6.66,40a21.72,21.72,0,0,0-2.56,13.59A23.14,23.14,0,0,1,550.83,493s-4.18,12.08-6.41,30.6l-5.18,20s82.21,39.25,125.91,3c0,0-7.93-38.29-24-65.44,0,0,37.51-85.77,29.62-123.49,0,0-2.69-19.94-16-33.27,0,0-3.07-15.12-8.94-17.93l-17-2.81Z" fill="#0070f0"/><path d="M642.34,299.66a24,24,0,0,1,3.5,6.75s-25.87,5.34-47.35,28.3l-3,1.48,4.44,5.93s-51.75,31.26-54,56.37c0,0-1.12-20.87,30.53-54.91a14.34,14.34,0,0,1,5.37-9.11,4.39,4.39,0,0,0,1.71-4c-.32-2.53-.15-6.35,3.08-8.81L600,319.16,634,298.42Z" fill="#0070f0"/><path d="M642.34,299.66a24,24,0,0,1,3.5,6.75s-25.87,5.34-47.35,28.3l-3,1.48,4.44,5.93s-51.75,31.26-54,56.37c0,0-1.12-20.87,30.53-54.91a14.34,14.34,0,0,1,5.37-9.11,4.39,4.39,0,0,0,1.71-4c-.32-2.53-.15-6.35,3.08-8.81L600,319.16,634,298.42Z" opacity="0.1" style="isolation:isolate"/><path d="M579.24,213.24s-13.34,9.63-12.6,31.85a14.78,14.78,0,0,1-8.88,11.11s-4.45,3.7,5.92,7.41c0,0,3,.74,1.48,4.44,0,0-3.7,5.19,3.71,4.45a35.13,35.13,0,0,0,8.88-3s-.74,5.19-8.88,8.15c0,0-3,2.22.74,5.93,0,0,.82-.74,1.15,5.18,0,0-2.65,11.4,25.13.88,0,0,5.82,8.6,2,25.71l22.89-11.78,14.6-14.05L634,279.16l-4.44-54.07-40.74-14.81Z" fill="#f9b499"/><path d="M607.92,248c-4.64-.8-9.43-13.28-9.43-13.28-4.44-17-10.37-17.77-10.37-17.77-8.14-14.08-19.85,13.91-19.85,13.91s-12.74-24.28,19.11-30.21c0,0,41.48-24.44,68.14,21.48,0,0,16.76,27.87-15,53.63a14.16,14.16,0,0,1-15.56,1.54A22.88,22.88,0,0,1,614.28,266l.51-12v-5l-6.87-1" fill="#2f2e41"/><ellipse cx="614.79" cy="253.98" rx="8.15" ry="11.11" fill="#f9b499"/><path d="M564.42,328.79s12.78-5.34,19.72-13.41l14.75-16s.6,9.22-1,16l-11.24,11.18a60.59,60.59,0,0,0-9.75,2.23S569.61,332.49,564.42,328.79Z" fill="#0070f0"/><path d="M564.42,328.79s12.78-5.34,19.72-13.41l14.75-16s.6,9.22-1,16l-11.24,11.18a60.59,60.59,0,0,0-9.75,2.23S569.61,332.49,564.42,328.79Z" fill="#fff" opacity="0.4" style="isolation:isolate"/><path d="M570.35,541.36a117.87,117.87,0,0,0,40,22.22s25.08-46.39,35.5-89.49l14.84-56.87s16.59-50.58,7.94-68.77c0,0-16.8-29.29-37.54-10,0,0-23.1,12.33-16.9,51.94a26.12,26.12,0,0,1,.16,7.28c-1.41,11.58-6.09,46.46-12.79,61.31a3.61,3.61,0,0,0-.17.46c-.3,1.13-1.39,5.81.25,9.18a3.16,3.16,0,0,1-.47,3.4,12.66,12.66,0,0,0-2.5,11.84,3.24,3.24,0,0,1-.24,2.29Z" fill="#0070f0"/><path d="M570.35,541.36a117.87,117.87,0,0,0,40,22.22s25.08-46.39,35.5-89.49l14.84-56.87s16.59-50.58,7.94-68.77c0,0-16.8-29.29-37.54-10,0,0-23.1,12.33-16.9,51.94a26.12,26.12,0,0,1,.16,7.28c-1.41,11.58-6.09,46.46-12.79,61.31a3.61,3.61,0,0,0-.17.46c-.3,1.13-1.39,5.81.25,9.18a3.16,3.16,0,0,1-.47,3.4,12.66,12.66,0,0,0-2.5,11.84,3.24,3.24,0,0,1-.24,2.29Z" opacity="0.2" style="isolation:isolate"/><path d="M574.66,544.87l-2.83,5.37s14.15,15.85,33.74,18.29l3.22-5.46S588.6,556.53,574.66,544.87Z" fill="#2f2e41"/><path d="M571.83,550.24s-23.7,14.08-12.59,28.15c0,0-3.71,8.15.74,10.37,0,0,1.06,1.48,4.6,0,0,0,.58,3.39,7.25,1.32,0,0,.53,3.4,7.67.67,0,0,6.4,3.19,14.55-6.43,0,0,6.17-9.6,6.79-16.65A62.17,62.17,0,0,1,571.83,550.24Z" fill="#f7a48b"/><path d="M559.24,578.39a28.84,28.84,0,0,1,3-8.89,28.84,28.84,0,0,1-3,8.89Z" fill="#f48f78"/><path d="M564.58,588.76a44.53,44.53,0,0,1,7.25-9.15,44.8,44.8,0,0,1-7.25,9.15Z" fill="#f48f78"/><path d="M578.56,580.45a21.3,21.3,0,0,1-6.73,9.63c2.33-3.2,4.54-6.32,6.73-9.63Z" fill="#f48f78"/><path d="M585.9,582.83a16.37,16.37,0,0,1-6.4,7.92c2.32-2.55,4.18-5.29,6.4-7.92Z" fill="#f48f78"/><path d="M319.09,277.13s-2.74,2.38-3.32,8.32c0,0-18.89-8-21.22-23.26C294.55,262.19,306.7,274.74,319.09,277.13Z" fill="#f7a48b"/><path d="M322.29,298.73l-.59,7.68-.94,12.29c-14.4-7.2-45-31.87-53-38.34a2.69,2.69,0,0,1-.65-3.39,34.92,34.92,0,0,0,2.06-4.82c1.67-10,5-8.67,5-8.67l.45.07-.45,3.61c1.66,3.32,13.3,6.65,13.3,6.65,10,3.32,15,8.31,15,8.31l13.3,10,5.32,4A3,3,0,0,1,322.29,298.73Z" fill="#0070f0"/><path d="M322.29,298.73l-.59,7.68-.94,12.29c-14.4-7.2-45-31.87-53-38.34a2.69,2.69,0,0,1-.65-3.39,34.92,34.92,0,0,0,2.06-4.82c1.67-10,5-8.67,5-8.67l.45.07-.45,3.61c1.66,3.32,13.3,6.65,13.3,6.65,10,3.32,15,8.31,15,8.31l13.3,10,5.32,4A3,3,0,0,1,322.29,298.73Z" fill="#fff" opacity="0.3" style="isolation:isolate"/><path d="M342.38,213.07c-1.3-5.85-2.93-8.49-3.28-9,0,0,0-.06,0-.07v0a4.68,4.68,0,0,1-.48-.18,12,12,0,0,1-1.17-.54c-.35-.18-.7-.38-1.06-.59s-.48-.3-.72-.46-.51-.32-.76-.49l-.71-.51q-.76-.54-1.53-1.14l-.66-.52c-.31-.25-.62-.51-.93-.75l-1-.86-.74-.65c-.16-.13-.32-.28-.46-.41l-.69-.62,0,0a5.58,5.58,0,0,0-4.58-1.43l-.61.08-.44,0c-6,.28-15-4.25-15-4.25-5.88-2.34-14.22-3-18.62-3.23a.68.68,0,0,0-.39,1.26c6.4,3.74,21,15.46,1.55,36.9-6,0-10.81,5.94-10.81,13.29A14.6,14.6,0,0,0,283,249.05c-2.16,7.3-5,8.3-7.5,7.35-2.63-1-4.68-4.21-4.68-4.21-3.38-3.32-6.63-6.65-6.63-6.65-13.29-10-12.31-19.94-12.31-19.94-4-34.93,20.63-39.91,20.63-39.91,1.66-11.64,28.26-13.4,28.26-13.4,24.94-5.07,41.57,15.07,41.57,15.07C355.63,197.67,345,210.32,342.38,213.07Z" fill="#2f2e41"/><path d="M298.58,238.89c0,7.35-4.84,13.31-10.8,13.31a9.58,9.58,0,0,1-7-3.15A14.6,14.6,0,0,1,277,238.89c0-7.34,4.84-13.3,10.81-13.3S298.58,231.55,298.58,238.89Z" fill="#f9b499"/><path d="M645.84,276.37c4-1.14,7.71-2.74,11.54-4.24a21.44,21.44,0,0,1-11.54,4.24Z" opacity="0.1" style="isolation:isolate"/><path d="M605.57,334.63s-2.63-20.66-21.15-8.81c0,0-2.22-3,5.93-5.92,0,0,7.67-3.54,11.95-8.52a59.93,59.93,0,0,1,5.92-6.11c6.58-5.76,19.35-15.45,31.75-16.48l4.44,9.63s-12.59,6.67-23.7,22.22C620.71,320.64,614.13,331.58,605.57,334.63Z" fill="#0070f0"/><path d="M605.57,334.63s-2.63-20.66-21.15-8.81c0,0-2.22-3,5.93-5.92,0,0,7.67-3.54,11.95-8.52a59.93,59.93,0,0,1,5.92-6.11c6.58-5.76,19.35-15.45,31.75-16.48l4.44,9.63s-12.59,6.67-23.7,22.22C620.71,320.64,614.13,331.58,605.57,334.63Z" fill="#fff" opacity="0.3" style="isolation:isolate"/></g></svg>