<svg width="185" height="184" viewBox="0 0 185 184" fill="none" xmlns="http://www.w3.org/2000/svg">
<path fill-rule="evenodd" clip-rule="evenodd" d="M124.868 26.887H157.34V79.4267H104.603V67.574L133.734 38.5595L135.165 37.1412L124.868 26.887Z" fill="#099A71"/>
<path fill-rule="evenodd" clip-rule="evenodd" d="M92.1652 0L129.464 37.145L92.1652 74.2938L83.7632 65.918V22.8697H69.2035L92.1652 0Z" fill="#E24353"/>
<path fill-rule="evenodd" clip-rule="evenodd" d="M26.9977 26.887V59.2403L35.8601 50.416L37.2988 48.9977L67.8338 79.4305H79.7386V26.887H26.9977Z" fill="#099A71"/>
<path fill-rule="evenodd" clip-rule="evenodd" d="M0 91.8198L37.2988 54.671L74.5785 91.8198L66.1688 100.203H22.9617V114.701L0 91.8198Z" fill="#E24353"/>
<path fill-rule="evenodd" clip-rule="evenodd" d="M26.9977 156.757V104.213H79.7386V116.066L50.6078 145.08L49.1768 146.498L50.6078 147.917L59.474 156.757H26.9977Z" fill="#099A71"/>
<path fill-rule="evenodd" clip-rule="evenodd" d="M92.1767 183.644L54.8778 146.498L92.1767 109.346L100.567 117.714V160.77H115.138L92.1767 183.644Z" fill="#E24353"/>
<path fill-rule="evenodd" clip-rule="evenodd" d="M157.34 156.757H104.596V104.213H116.5L145.62 133.239L147.051 134.646L148.47 133.228L157.34 124.399V156.757Z" fill="#099A71"/>
<path fill-rule="evenodd" clip-rule="evenodd" d="M147.055 128.976L109.771 91.8198L118.173 83.444H161.38V68.9463L184.342 91.8198L147.055 128.976Z" fill="#E24353"/>
</svg>
