<svg width="251" height="251" viewBox="0 0 251 251" fill="none" xmlns="http://www.w3.org/2000/svg">
<g clip-path="url(#clip0_1_2)">
<path d="M251 223.111C251 238.513 238.513 251 223.111 251H27.8889C12.4872 251 0 238.513 0 223.111V27.8889C0 12.4872 12.4872 0 27.8889 0H223.111C238.513 0 251 12.4872 251 27.8889V223.111Z" fill="#3366FF"/>
<path d="M134.85 247.2C129.704 252.262 121.296 252.262 116.157 247.2L69.9105 201.679C64.7719 196.617 63.4124 187.511 66.8845 181.431L119.176 52.8146C122.655 46.7418 128.345 46.7418 131.817 52.8146L184.109 181.431C187.581 187.504 186.221 196.617 181.083 201.672L134.85 247.2Z" fill="black"/>
<path d="M125.5 102.269C132.117 102.269 139.472 95.631 145.712 86.9924L131.817 52.8146C128.338 46.7418 122.648 46.7418 119.176 52.8146L105.281 86.9924C111.535 95.631 118.883 102.269 125.5 102.269Z" fill="#BDC0C9"/>
<path d="M160.361 40.2855C160.361 53.9789 140.902 89.8719 125.5 89.8719C110.098 89.8719 90.6389 53.9789 90.6389 40.2855C90.6389 27.854 110.098 20.9167 125.5 20.9167C140.902 20.9167 160.361 27.854 160.361 40.2855V40.2855Z" fill="black"/>
<path d="M0 27.8889V43.6043C14.4604 62.9173 47.2647 97.646 55.7778 97.646C71.1794 97.646 132.472 22.3739 132.472 6.97222C132.472 0 125.5 0 118.528 0H27.8889C12.4873 0 0 12.4872 0 27.8889Z" fill="#F0F0F0"/>
<path d="M118.528 6.97222C118.528 22.3739 179.821 97.646 195.222 97.646C203.735 97.646 236.54 62.9173 251 43.6043V27.8889C251 12.4872 238.513 0 223.111 0H132.472C125.5 0 118.528 0 118.528 6.97222Z" fill="#F0F0F0"/>
<path d="M27.8889 0C26.0273 0 24.2215 0.202194 22.4645 0.550806C30.7126 12.1038 73.6406 20.9167 125.5 20.9167C177.359 20.9167 220.287 12.1038 228.535 0.550806C226.778 0.202194 224.973 0 223.111 0H27.8889Z" fill="#C2C2C2"/>
</g>
<defs>
<clipPath id="clip0_1_2">
<rect width="251" height="251" fill="white"/>
</clipPath>
</defs>
</svg>
